<mxfile host="app.diagrams.net" agent="Mozilla/5.0 (Windows NT 10.0; Win64; x64) AppleWebKit/537.36 (KHTML, like Gecko) Chrome/140.0.0.0 Safari/537.36" version="28.2.4">
  <diagram name="Page-1" id="Cu99sBXCVIxc1E4DCSHP">
    <mxGraphModel dx="2593" dy="1424" grid="1" gridSize="10" guides="1" tooltips="1" connect="1" arrows="1" fold="1" page="1" pageScale="1" pageWidth="827" pageHeight="1169" math="0" shadow="0">
      <root>
        <mxCell id="0" />
        <mxCell id="1" parent="0" />
        <mxCell id="Lc69PInTfA7sejHYpEJL-128" value="" style="group" parent="1" vertex="1" connectable="0">
          <mxGeometry x="179.99978723404257" y="1444" width="496.1702127659574" height="260" as="geometry" />
        </mxCell>
        <mxCell id="Lc69PInTfA7sejHYpEJL-40" value="MultTenancy (Schema Level)" style="rounded=0;whiteSpace=wrap;html=1;fillColor=none;align=left;verticalAlign=top;fontStyle=1;container=0;" parent="Lc69PInTfA7sejHYpEJL-128" vertex="1">
          <mxGeometry width="496.17021276595744" height="260" as="geometry" />
        </mxCell>
        <mxCell id="Lc69PInTfA7sejHYpEJL-41" value="Table A" style="rounded=0;whiteSpace=wrap;html=1;fillColor=#d5e8d4;strokeColor=#82b366;fontStyle=1;container=0;" parent="Lc69PInTfA7sejHYpEJL-128" vertex="1">
          <mxGeometry x="32.55081685020848" y="150" width="132.66331658291455" height="71.25" as="geometry" />
        </mxCell>
        <mxCell id="Lc69PInTfA7sejHYpEJL-42" value="Table Schema B" style="rounded=0;whiteSpace=wrap;html=1;fillColor=#d5e8d4;strokeColor=#82b366;fontStyle=1;container=0;" parent="Lc69PInTfA7sejHYpEJL-128" vertex="1">
          <mxGeometry x="176.2694098150326" y="150" width="132.66331658291455" height="71.25" as="geometry" />
        </mxCell>
        <mxCell id="Lc69PInTfA7sejHYpEJL-43" value="Table Schema C" style="rounded=0;whiteSpace=wrap;html=1;fillColor=#d5e8d4;strokeColor=#82b366;fontStyle=1;container=0;" parent="Lc69PInTfA7sejHYpEJL-128" vertex="1">
          <mxGeometry x="321.0935304180476" y="150" width="132.66331658291455" height="71.25" as="geometry" />
        </mxCell>
        <mxCell id="Lc69PInTfA7sejHYpEJL-44" style="edgeStyle=orthogonalEdgeStyle;rounded=0;orthogonalLoop=1;jettySize=auto;html=1;" parent="Lc69PInTfA7sejHYpEJL-128" source="Lc69PInTfA7sejHYpEJL-45" target="Lc69PInTfA7sejHYpEJL-41" edge="1">
          <mxGeometry relative="1" as="geometry" />
        </mxCell>
        <mxCell id="Lc69PInTfA7sejHYpEJL-45" value="Policy" style="rounded=0;whiteSpace=wrap;html=1;fillColor=#D4E1F5;fontStyle=1;container=0;" parent="Lc69PInTfA7sejHYpEJL-128" vertex="1">
          <mxGeometry x="42.710851063829764" y="60" width="112.34042553191489" height="40" as="geometry" />
        </mxCell>
        <mxCell id="Lc69PInTfA7sejHYpEJL-46" style="edgeStyle=orthogonalEdgeStyle;rounded=0;orthogonalLoop=1;jettySize=auto;html=1;entryX=0.5;entryY=0;entryDx=0;entryDy=0;" parent="Lc69PInTfA7sejHYpEJL-128" source="Lc69PInTfA7sejHYpEJL-47" target="Lc69PInTfA7sejHYpEJL-42" edge="1">
          <mxGeometry relative="1" as="geometry" />
        </mxCell>
        <mxCell id="Lc69PInTfA7sejHYpEJL-47" value="Policy" style="rounded=0;whiteSpace=wrap;html=1;fillColor=#D4E1F5;fontStyle=1;container=0;" parent="Lc69PInTfA7sejHYpEJL-128" vertex="1">
          <mxGeometry x="186.9840425531915" y="60" width="112.34042553191489" height="40" as="geometry" />
        </mxCell>
        <mxCell id="Lc69PInTfA7sejHYpEJL-48" style="edgeStyle=orthogonalEdgeStyle;rounded=0;orthogonalLoop=1;jettySize=auto;html=1;entryX=0.5;entryY=0;entryDx=0;entryDy=0;" parent="Lc69PInTfA7sejHYpEJL-128" source="Lc69PInTfA7sejHYpEJL-49" target="Lc69PInTfA7sejHYpEJL-43" edge="1">
          <mxGeometry relative="1" as="geometry" />
        </mxCell>
        <mxCell id="Lc69PInTfA7sejHYpEJL-49" value="Policy" style="rounded=0;whiteSpace=wrap;html=1;fillColor=#D4E1F5;fontStyle=1;container=0;" parent="Lc69PInTfA7sejHYpEJL-128" vertex="1">
          <mxGeometry x="331.2572340425532" y="60" width="112.34042553191489" height="40" as="geometry" />
        </mxCell>
        <mxCell id="Lc69PInTfA7sejHYpEJL-139" value="" style="group;movable=1;resizable=1;rotatable=1;deletable=1;editable=1;locked=0;connectable=1;fillColor=default;" parent="1" vertex="1" connectable="0">
          <mxGeometry x="310" y="790" width="550" height="190.6" as="geometry" />
        </mxCell>
        <mxCell id="Lc69PInTfA7sejHYpEJL-1" value="" style="rounded=0;whiteSpace=wrap;html=1;fillColor=none;strokeWidth=2;strokeColor=light-dark(#ed7100, #ededed);fontStyle=1" parent="Lc69PInTfA7sejHYpEJL-139" vertex="1">
          <mxGeometry y="10.600000000000021" width="550" height="179.99999999999997" as="geometry" />
        </mxCell>
        <mxCell id="Lc69PInTfA7sejHYpEJL-54" value="EKS" style="sketch=0;points=[[0,0,0],[0.25,0,0],[0.5,0,0],[0.75,0,0],[1,0,0],[0,1,0],[0.25,1,0],[0.5,1,0],[0.75,1,0],[1,1,0],[0,0.25,0],[0,0.5,0],[0,0.75,0],[1,0.25,0],[1,0.5,0],[1,0.75,0]];outlineConnect=0;fontColor=#232F3E;fillColor=#ED7100;strokeColor=#ffffff;dashed=0;verticalLabelPosition=bottom;verticalAlign=top;align=center;html=1;fontSize=12;fontStyle=1;aspect=fixed;shape=mxgraph.aws4.resourceIcon;resIcon=mxgraph.aws4.eks_anywhere;" parent="Lc69PInTfA7sejHYpEJL-139" vertex="1">
          <mxGeometry x="1.0780648404636003e-13" width="57.99999999999999" height="57.99999999999999" as="geometry" />
        </mxCell>
        <mxCell id="Lc69PInTfA7sejHYpEJL-109" value="" style="group;fillColor=default;" parent="Lc69PInTfA7sejHYpEJL-139" vertex="1" connectable="0">
          <mxGeometry x="90" y="50" width="410" height="139.39999999999998" as="geometry" />
        </mxCell>
        <mxCell id="Lc69PInTfA7sejHYpEJL-63" value="&lt;b&gt;POD EC2 instance contents&lt;/b&gt;" style="points=[[0,0],[0.25,0],[0.5,0],[0.75,0],[1,0],[1,0.25],[1,0.5],[1,0.75],[1,1],[0.75,1],[0.5,1],[0.25,1],[0,1],[0,0.75],[0,0.5],[0,0.25]];outlineConnect=0;gradientColor=none;html=1;whiteSpace=wrap;fontSize=12;fontStyle=0;container=0;pointerEvents=0;collapsible=0;recursiveResize=0;shape=mxgraph.aws4.group;grIcon=mxgraph.aws4.group_ec2_instance_contents;strokeColor=#D86613;fillColor=none;verticalAlign=top;align=left;spacingLeft=30;fontColor=#D86613;dashed=0;" parent="Lc69PInTfA7sejHYpEJL-109" vertex="1">
          <mxGeometry width="410" height="139.4" as="geometry" />
        </mxCell>
        <mxCell id="Lc69PInTfA7sejHYpEJL-119" style="edgeStyle=orthogonalEdgeStyle;rounded=0;orthogonalLoop=1;jettySize=auto;html=1;startArrow=classic;startFill=1;" parent="Lc69PInTfA7sejHYpEJL-109" source="Lc69PInTfA7sejHYpEJL-67" target="Lc69PInTfA7sejHYpEJL-65" edge="1">
          <mxGeometry relative="1" as="geometry" />
        </mxCell>
        <mxCell id="Lc69PInTfA7sejHYpEJL-67" value="&lt;b&gt;Kata Service&lt;/b&gt;" style="sketch=0;outlineConnect=0;fontColor=#232F3E;gradientColor=none;fillColor=#ED7100;strokeColor=none;dashed=0;verticalLabelPosition=bottom;verticalAlign=top;align=center;html=1;fontSize=12;fontStyle=0;aspect=fixed;pointerEvents=1;shape=mxgraph.aws4.instance2;container=0;" parent="Lc69PInTfA7sejHYpEJL-109" vertex="1">
          <mxGeometry x="42.690000000000055" y="39.39999999999998" width="48" height="48" as="geometry" />
        </mxCell>
        <mxCell id="Lc69PInTfA7sejHYpEJL-120" style="edgeStyle=orthogonalEdgeStyle;rounded=0;orthogonalLoop=1;jettySize=auto;html=1;startArrow=classic;startFill=1;" parent="Lc69PInTfA7sejHYpEJL-109" source="Lc69PInTfA7sejHYpEJL-65" target="Lc69PInTfA7sejHYpEJL-64" edge="1">
          <mxGeometry relative="1" as="geometry" />
        </mxCell>
        <mxCell id="Lc69PInTfA7sejHYpEJL-65" value="&lt;b&gt;Search Service&lt;/b&gt;" style="sketch=0;outlineConnect=0;fontColor=#232F3E;gradientColor=none;fillColor=#ED7100;strokeColor=none;dashed=0;verticalLabelPosition=bottom;verticalAlign=top;align=center;html=1;fontSize=12;fontStyle=0;aspect=fixed;pointerEvents=1;shape=mxgraph.aws4.instance2;container=0;" parent="Lc69PInTfA7sejHYpEJL-109" vertex="1">
          <mxGeometry x="142.69000000000005" y="39.39999999999998" width="48" height="48" as="geometry" />
        </mxCell>
        <mxCell id="Lc69PInTfA7sejHYpEJL-121" style="edgeStyle=orthogonalEdgeStyle;rounded=0;orthogonalLoop=1;jettySize=auto;html=1;startArrow=classic;startFill=1;" parent="Lc69PInTfA7sejHYpEJL-109" source="Lc69PInTfA7sejHYpEJL-64" target="Lc69PInTfA7sejHYpEJL-66" edge="1">
          <mxGeometry relative="1" as="geometry" />
        </mxCell>
        <mxCell id="Lc69PInTfA7sejHYpEJL-64" value="&lt;b&gt;POC Service&lt;/b&gt;" style="sketch=0;outlineConnect=0;fontColor=#232F3E;gradientColor=none;fillColor=#ED7100;strokeColor=none;dashed=0;verticalLabelPosition=bottom;verticalAlign=top;align=center;html=1;fontSize=12;fontStyle=0;aspect=fixed;pointerEvents=1;shape=mxgraph.aws4.instance2;container=0;" parent="Lc69PInTfA7sejHYpEJL-109" vertex="1">
          <mxGeometry x="232.69000000000005" y="39.39999999999998" width="48" height="48" as="geometry" />
        </mxCell>
        <mxCell id="Lc69PInTfA7sejHYpEJL-66" value="&lt;b&gt;Video Service&lt;/b&gt;" style="sketch=0;outlineConnect=0;fontColor=#232F3E;gradientColor=none;fillColor=#ED7100;strokeColor=none;dashed=0;verticalLabelPosition=bottom;verticalAlign=top;align=center;html=1;fontSize=12;fontStyle=0;aspect=fixed;pointerEvents=1;shape=mxgraph.aws4.instance2;container=0;" parent="Lc69PInTfA7sejHYpEJL-109" vertex="1">
          <mxGeometry x="319.29999999999995" y="39.39999999999998" width="48" height="48" as="geometry" />
        </mxCell>
        <mxCell id="Lc69PInTfA7sejHYpEJL-133" value="NameSpace" style="sketch=0;outlineConnect=0;fontColor=#232F3E;gradientColor=none;fillColor=#8C4FFF;strokeColor=none;dashed=0;verticalLabelPosition=top;verticalAlign=bottom;align=center;html=1;fontSize=12;fontStyle=1;aspect=fixed;pointerEvents=1;shape=mxgraph.aws4.namespace;labelPosition=center;container=0;" parent="Lc69PInTfA7sejHYpEJL-109" vertex="1">
          <mxGeometry x="340" y="-17" width="34.3" height="34.3" as="geometry" />
        </mxCell>
        <mxCell id="Lc69PInTfA7sejHYpEJL-3" value="Route 53" style="outlineConnect=0;dashed=0;verticalLabelPosition=bottom;verticalAlign=top;align=center;html=1;shape=mxgraph.aws3.route_53;fillColor=#F58536;gradientColor=none;fontStyle=1" parent="1" vertex="1">
          <mxGeometry x="559" y="200" width="50" height="60" as="geometry" />
        </mxCell>
        <mxCell id="Lc69PInTfA7sejHYpEJL-4" value="" style="group" parent="1" vertex="1" connectable="0">
          <mxGeometry x="511" y="10" width="320" height="150" as="geometry" />
        </mxCell>
        <mxCell id="Lc69PInTfA7sejHYpEJL-5" value="" style="rounded=0;whiteSpace=wrap;html=1;fillColor=none;" parent="Lc69PInTfA7sejHYpEJL-4" vertex="1">
          <mxGeometry y="12.5" width="320" height="137.5" as="geometry" />
        </mxCell>
        <mxCell id="Lc69PInTfA7sejHYpEJL-6" value="iOS" style="shape=image;verticalLabelPosition=bottom;labelBackgroundColor=default;verticalAlign=top;aspect=fixed;imageAspect=0;image=data:image/png,iVBORw0KGgoAAAANSUhEUgAAAgAAAAIACAYAAAD0eNT6AAAAAXNSR0IArs4c6QAAAERlWElmTU0AKgAAAAgAAYdpAAQAAAABAAAAGgAAAAAAA6ABAAMAAAABAAEAAKACAAQAAAABAAACAKADAAQAAAABAAACAAAAAAAL+LWFAABAAElEQVR4Ae2dB7wlRZm+YZlhyGHIeRiRIKBEiUoQATFhQHQFV1wMq6Kya1zXnNe/uoY1ICpKkBVWVpAgiCBZQBGQIcsQh6CkAWaYGeD/vnDvcOamE6q6q6r7+X6/955zz+mq+uqp6u6vq6vrLLYYBgEIQAACEIAABCAAAQhAAAIQgAAEIAABCEAAAhCAAAQgAAEIQAACEIAABCAAAQhAAAIQgAAEIAABCEAAAhCAAAQgAAEIQAACEIAABCAAAQhAAAIQgAAEIAABCEAAAhCAAAQgAAEIQAACEIAABCAAAQhAAAIQgAAEIAABCEAAAhCAAAQgAAEIQAACEIAABCAAAQhAAAIQgAAEIAABCEAAAhCAAAQgAAEIQAACEIAABCAAAQhAAAIQgAAEIAABCEAAAhCAAAQgAAEIQAACEIAABCAAAQhAAAIQgAAEIAABCEAAAhCAAAQgAAEIQAACEIAABCAAAQhAAAIQgAAEIAABCEAAAhCAAAQgAAEIQAACEIAABCAAAQhAAAIQgAAEIAABCEAAAhCAAAQgAAEIQAACEIAABCAAAQhAAAIQgAAEIAABCEAAAhCAAAQgAAEIQAACEOibwOJ9pyABBJ4lsILeLjH0r/vSSkPv5+v1kaH3fnlUmtfxP28hAIGJCUzR18t0bLK83k8a+v+Bjs8X6P3sjv95C4GeCRAA9IyqkRv65L26tJq05oj3a+h/n+B94PGJ3a/LDb36cwwCEMiLwENyx4G3AwK/Pig9PKR79GrdN/R699D7e/X6pIS1kAABQPMbfT1VcSNpA2nakPzeWleaLGEQgEA7CXi07nbpVmnmiNcb9P9dEtZQAgQAzWhYX8n7JP88aVNpsyFtoldfuWMQgAAEBiHgUYXrpRnSdUPy+5slRg4EoWQjACiv9Xwf0Cf2bTu0ld4vK2EQgAAE6iDgWwxXStdIDgj+KF0mPS5hhRAgAMi/odaWi7sMaWe9vkBaUsIgAAEI5ERgrpz5s3SRdMHQq+cdYJkSIADIr2F8b35fySf9XaUNJQwCEIBAiQRulNPDAcEZen9HiZVoqs8EAHm0rE/6+0sHSL7Kp10EAYMABBpHwLcLTpCOkW5qXO0KqxAnmnQNtqqKfot0kLR1OjcoGQIQgEDtBJ5SiZ4zcLTkYMCPLGI1EyAAqBf4P6g4X+EfPKSl6y2e0iAAAQhkR8ATB0+WjpDOlhwcYDUQIACoAbKK8KN4h0qHSRtKGAQgAAEIjCZwgz76pnSU9JiEVUiAAKBCuMraq+n9i+QT/1QJgwAEIACB7gT+pk1+JDkYmNV9c7YYhAABwCDUuqfxpL5PSL6/P6X75mwBAQhAAAJjEJijz34sfVG6a4zv+SiAAAFAALwxknpi3wel90tLjfE9H0EAAhCAQP8E5inJUZIvrPz7BVgEAgQAESAqixUln/g/IPkHczAIQAACEIhP4CFl+VXpvyT/yigWQIAAIACekprfwdJ/Sr7fj0EAAhCAQPUEfDvgY9LPqi+quSUQAAzetl6S978lr9iHQQACEIBA/QTOVZHvlfybBFifBPwrclh/BPxI39ekH0qe7IdBAAIQgEAaAtNU7Nsl33q9UFogYT0SYASgR1BDm/lq/yhpo6H/eYEABCAAgTwI3Cw3DpHOz8Od/L1gBKC3NvKKfZ+XjpRW6S0JW0EAAhCAQI0EvNaKl1dfRnIQ8ISETUCAEYAJ4Ax9tZ1ej5Oe231TtoAABCAAgQwIXC0f3iQxN2CCxvDa9Nj4BBxNnidx8h+fEd9AAAIQyI3AlnLocslLsGPjEGAEYGwwnujnH6Z449hf8ykEIAABCBRC4Gj5+S6J3xYY0WAEACOA6N/NpV9KG4/+ik8gAAEIQKBAAlfJ59dKniiIDRHgFsCiXeGl+vcCiZP/olz4DwIQgEDJBJ4v5/8g7VZyJWL7TgDwLFHfKzpVWunZj3gHAQhAAAINIeAnuH4jeW4XJgI8BvgMAy/s80V4sE9AAAIQaDSBSard/pLPfedKrba2BwDuDP6pSU8QwSAAAQhAoPkEPPfNtwKmS6dIT0qttDYHAFPU4v8jMdO/lV2fSkMAAi0n4N9z2UT6ldTKIKCtTwEsqwY/SfKkPwwCEIAABNpLwHO/DpDmtA1BGwOAFdTIngiyY9sam/pCAAIQgMCYBM7Wp6+UWhUEtO0pAK/pf7LEyV8QMAhAAAIQeJrAS/TXtwJ8a7g11qYAYLJa9QSJ50Bb072pKAQgAIGeCfiW8M8lTw5vhbVlEqDreYz0mla0KpWEAAQgAIFBCGymRNMkjxQ/JTXa2hIAeF1/Fn9odFemchCAAASiEPDTActJZ0bJLeNM2hAAfFj8P5JxG+AaBCAAAQjkRWBnuXOv5F8UbKw1/SmAl6vlPLGjDYFOYzspFYMABCCQgMB8lbmf9NsEZddSZJMDgG1E8DzJz/xjEIAABCAAgX4JPKwEu0h/6TdhCds3NQBYXfD/JK1TQiPgIwQgAAEIZEvgRnm2vfRQth4O6FgTHwN0nY6WOPkP2ClIBgEIQAACCwk8V+9+JjXugrmJ98Y/oYY6dGHT8QYCEIAABCAQRsC/GXC/9IewbPJK3bSIZnfh9YSNJgY2efUcvIEABCDQLgLzVd3dpYuaUu0mBQCrqVGuktZsSuNQDwhAAAIQyIrATHmzldSI+QBNulI+So2yg4RBAAIQgAAEqiCwkjL1xaZXCizemjIC8Ca1xHHFtwYVgAAEIACBEgh4jZnTSnB0Ih+bEAA4GvMzmn70D4MABCAAAQhUTWCWCthC8sTAYq0JtwB85b9tsS2A4xCAAAQgUBqB5eXwWtL/leZ4p7+ljwC8uvQG6GwM3kMAAhCAQFEE9pS35xTlcYezJQcAS6seHvqf3lEf3kIAAhCAAATqIjBDBfmpAD8iWJyVfAvgP0T7NcURx2EIQAACEGgKAc9B8zyAS0qsUKkjAOsL9rXSMiVCx2cIQAACEGgMgdmqyabSXaXVqNQRgCMF+gWlwcZfCEAAAhBoHIEpqtHKUnFrA5Q4AuAZ/5dJJfoutzEIQAACEGgYgSdUny0lj0wXYyWOAPxYdP3rTBgEIAABCEAgBwL/ICdWlU7MwZlefSjtKnpXVez8XivHdhCAAAQgAIGaCDylcjxCfUVN5QUXU9oIwLGqsScAYhCAAAQgAIGcCPiCej2pmGXpSxoB2F1gi11wQb5jEIAABCDQfAIeBfhTCdX0fYtS7N9KcRQ/IQABCECgtQSKOVeVMgKwibqSV1wqKWBpbe+n4hCAAARaTGCB6r6RdGvuDEo5oX5QIEvxNfc2xz8IQAACEKiOwCRl/f7qso+XcwkjAF5q8TZpqXjVJicIQAACEIBAZQRmK+d1pYcrKyFCxiVcVXu9f07+ERqbLCAAAQhAoBYC/rngl9dSUkAhJQQA/slfDAIQgAAEIFASgezPXbnfAlhOrX2fxAhASd0eXyEAAQhAwMP/voU9L1cUuY8A7CNwnPxz7T34BQEIQAAC4xFYQV/sPt6XOXyeewCQ/RBKDo2IDxCAAAQgkCWBrM9hOd8C8DLFd0v+gQUMAhCAAAQgUBqBO+Wwlwf27wRkZzmPALxItDj5Z9dlcAgCEIAABHoksI6289LAWVrOAUD2j1Bk2aI4BQEIQAACORF4RU7OdPqScwCwV6ejvIcABCAAAQgUSOAlufqc6xyAVQTsXinnACXXNsUvCEAAAhDIh4B/G2Cq5NUBs7JcT7B7iFKuvmXVgDgDAQhAAAJZE/BvA+ySo4e5nmT3zBEWPkEAAhCAAAQGIJDlOY0AYICWJAkEIAABCECgDwJZBgA5zgFYW1D97CQGAQhAAAIQaAKBJ1WJNaS/5VSZHEcAsp0xmVPD4QsEIAABCBRDwOfaF+fmbY4BQHaQcms0/IEABCAAgeIIZHduyzEA2KG4ZsVhCEAAAhCAwMQEXjjx1/V/m9scgGWF4EHJj01gEIAABCAAgaYQmKuKrChl8/PAuY0AbCc4nPyb0t2pBwQgAAEIDBPwT9tvOfxPDq+5BQDZDZHk0Ej4AAEIQAACjSCQ1TkutwBg+0Y0MZWAAAQgAAEIjCaQ1TkutwAgq+hodNvxCQQgAAEIQGBgAlmd43KaBLi6kN4zMFYSQgACEIAABPIm4AWBVpYezsHNnEYAts4BCD5AAAIQgAAEKiLgc242EwFzCgCeVxFwsoUABCAAAQjkQiCbc11OAcBmubQOfkAAAhCAAAQqIpDNuS6nACCbqKiiRidbCEAAAhCAQDbnupwCgE3pFxCAAAQgAIGGE8hmBCCXpwDWVIPPanijUz0IQAACEIDAU0LgJYFnp0aRywhANhFR6gahfAhAAAIQaDQBX3hncc7LJQDI5p5Io7sdlYMABCAAgRwIEAB0tMJzOt7zFgIQgAAEINBkAhvlULlcRgA2yAEGPkAAAhCAAARqILB+DWV0LSKXACALGF1psQEEIAABCEAgnEAW5zwCgPCGJAcIQAACEIBAPwTW62fjqrbN4THApVS5x6QcfKmKM/lCAAIQgAAEhgnM05ulJf84UDLLYQTAkRAn/2RdgIIhAAEIQKBmAkuqPP8CblLLIQDI4l5I0lagcAhAAAIQaBuB5Oc+AoC2dTnqCwEIQAACORAgAFArrJFDS+ADBCAAAQhAoEYCXgI/qeUwArBKUgIUDgEIQAACEKifwNT6i1y0xBwCgJUXdYn/IAABCEAAAo0nkPzcl0MAkDwKanw3o4IQgAAEIJAbgeTnPgKA3LoE/kAAAhCAQBsIMAKgVk4eBbWhp1FHCEAAAhDIikDycx8jAFn1B5yBAAQgAIGWECAAUEMnh9CSzkY1IQABCEAgHwLJz32pRwCWUFt4PWQMAhCAAAQg0CYCy6eubOoAwOshYxCAAAQgAIG2EZicusIEAKlbgPIhAAEIQKCNBBwAJD0HJy1clWcEoI3dnjpDAAIQgIAJJB0FIACgE0IAAhCAAATSEEh6EUwAkKbRKRUCEIAABCBAAEAfgAAEIAABCLSQAAFACxudKkMAAhCAAARaHQAsTvtDAAIQgAAEWkog6W34pIWrwee1tNGpNgQgAAEIQODxlAgIAFLSp2wIQAACEGgzgaQXwQQAbe561B0CEIAABFISIABISZ+yIQABCEAAAokItDoAmJ8IOsVCAAIQgAAEUhNIeg7kFkDq5qd8CEAAAhBoI4EnVGkrmREAJENPwRCAAAQg0GICSYf/zT11AJB0+KPFHY+qQwACEIBAWgIL0hafPgBIXX/KhwAEIAABCLSSQOoRgFZCp9IQgAAEIACB1AQIAFK3AOVDAAIQgAAEEhAgAEgAnSIhAAEIQAACqQkQAKRuAcqHAAQgAAEIJCBAAJAAOkVCAAIQgAAEUhMgAEjdApQPAQhAAAIQSECAACABdIqEAAQgAAEIpCZAAJC6BSgfAhCAAAQgkIAAAUAC6BQJAQhAAAIQSE2AACB1C1A+BCAAAQhAIAEBAoAE0CkSAhCAAAQgkJoAAUDqFqB8CEAAAhCAQAICBAAJoFMkBCAAAQhAIDUBAoDULUD5EIAABCAAgQQECAASQKdICEAAAhCAQGoCBACpW4DyIQABCEAAAgkIEAAkgE6REIAABCAAgdQECABStwDlQwACEIAABBIQIABIAJ0iIQABCEAAAqkJEACkbgHKhwAEIAABCCQgQACQADpFQgACEIAABFITIABI3QKUDwEIQAACEEhAYFKCMikSAqUTeFIVuH9Is/X6qDRPsj0lLf70u8UW8/61vLSctLI0VWKfEwTsaQL36u8s6THJfWiONFd6RJovrSQtIa0oTZbcj1aT1pboR4KAhRGgE4XxI3UzCfgkfot0jTRDulW6bej1Lr365D+o+WC+jrS+tJ40TdpU2lKaLvmAjzWHgPvLFUO6Qa+3S3cMySf7Qcx9ZE1pA2ldaZq0jbS1tJHEyK4gYN0JDF+pdN+yui18sMUgkJKAT/AXS38Y0lV69RVZ3baUCtxC2qFDG9ftBOUNTGCBUl4inSldKvnE76v8Os0jTltJ20ovlXaXlpGw/Ah49HCFlG4RAKSkT9mpCDykgs+WfKC2fLWfq3m0YO8h7aXXVXN1tKV++Yr+NMn9yH3KfSsnc1C5q7SvtJ+0mYTlQYAAQO3ACEAenbHpXjyoCp4inSD9RponlWYe2t1ZOmBIa5VWgYb463v1v5aOlnzyf0IqxTaXowdLh0irl+J0Q/1MHgDkwNUBAIJBFX3AB+YzpNdLS0pNMt8Hfpn0S8nBTBX8yHNRrheK80HSslLp5v1hf8n7B+2chsHDpXeiGP7T+dJ0viZzf0Ad80vStBgdtIA8PCHs45JnlDe5XVPUzU98+Cr/xVJTzZMHPTLmgDkF47aWSQBAh2OHi9gHPJnvA5InQrXRpqjSh0rXSm09qMas94ni6JNjW2wTVfQoiUCgnv2HAECdLeYOS17t5Hmf+tFHJE94wp55DMzzBG6S2Cf6Z+AAyhMv22rbqOK+3UHfqZYBAQCdjJ0soA/4Ub1PSl4gBRtNwPd53yd53QIO5t0ZmNN7pUlS281PiHmi4N0SfacaBgQAdC52rgH7gCe/bSBh3Qmspk2OlBjaHf9Afqr4MCt+dF9aWR95fgBBQHwGBAB0LHasPvvAHdrezzNj/RPYSUmYH7DogXyumBwu+YoXG5/A2/WVR9wIBOIxIACgQ7FD9dEHjtG2viLBBiewtJJ+XWI0YLHFrheHbQZH2bqUz1ONr5IIAuIwIACgM7Ez9dAHHtI2B0hYPAJ7KKu7pLYezM9T3Qkm++9PfsKGtQPi7DfJA4Achr18AMIgMB6BK/WFT/43jrdBgs/9gz7rSlOlVYZePXHMK/X5O6/wtUDyM+R/lzy5zLpz6FUvWZjXDzhOcjDQJvPjfQdLHv6v29w/ni9tKK0neTVHv3q9fp9c3Y/8at/mSx5290JPftLFE/K89LDXe7hBukZ6XKrbJqvAI6S31l1ww8pLvhIgAUDDelTDqnOs6uN7j3MS1WsNlftCaUvJB+1NpWmSD+KDmnf6mdJ10tVDukyvDg5SmFcU/JL0oRSFJyjzWyrzcMnBWdXmgPAF0l7SLtLwiV9vo5iDzJskB8ke0ThH8hyPOsznjs9K/1FHYQ0tI3kAkAPXtg5BUu/xh9F8cP6MVHeA6iv6N0o/kXyFVWcb3aLyjpbeIqWYje5Ay1ecdda57rK+rfpVbVNUwKslj6z4qr3uOvq2zo+kfSSPJlRtX1ABddexKeUlvwVQdefoJf+mNCb1iHMg8HCnT4J12Woq6N3S7yVfUeXQjk/Ij4slr2q4tlSXvVQF+aCUA4PYPvxc9fIVeVXmK30Pi/tWT2zfB83vXvnyHanqXwD8fkZ1HpRVinQEAHScbA4WKXaAkWX6vqevnqo2jyzsLf1Kyv2q10HJGZK5eLi+attBBeR0EhvZRwb5/0zVacmKwO2rfM+SBvGrrjQeUTtdcp+vwtwvfyHVVZ+mlEMAQKdhpxnqA4/p1QfTKs0nAQ91+/GvEg8iM+W3RwU8YaxK21qZ++qxREYjffY9cU+qi23bK0Pfdx9ZXu7/nyuf7Xts862PS6Xc65+TfwQAdBh2GPUBz2Su6upEWS82WfISr7dLOR0ABvXlHtXjw9JSUlXmCWuljwTMUR22igxoVeX3M8lX1YO2X+p09v04KfZck+nK84GCudTdLgQAdJZiDyKxdhYPcb9Bqso8dF7qFX83xreqbm+WqposuZPyfkTq5keu3zvoi2n7KbNZUq717dcvj/K8PiYg5fW6BvHpl2e/2xMA0FkaczDpt/MPb//OyAeg4ezW15tTWtK/zlU9N5GqsH2UqSdmDrdXKa+e3xErMPJs+m9KJV/1T9RuR6luMUeTvqv8JiqP757hQwBAR2n1jvJVtX8V9i5l6mds23Sg8XD3R6QqZrq/ozCWj8rfdaUYtqIy+Y3U9L50seq4ZgxgymMF6S6p6cxC60cAQCfpeyfxcPbnpZ2ltSXf315D2kb6kHSJFNox60jvq/PYs9qnKs+TCql/VYx/p/rHOvkpq4X2X3pXlc+x8/30Qq/D3viE+Bcptn+55neb6rpxGLKFqQ9uEbdB25MAgE7S88Fllli9VerlpLmvtrtGGrRjVp1uhnyLPTPbk71mZlznqpl25u8FaPaQYpr7Xe6Pu5nB7dIyESq+ivK4Wurk2ob3d6jOG0Xg59svF7aQXz99hACADtLTAcZLxfZ7Vbes0vxvhnwfk09eWjemHajMPOzbz87X9G29vkHsSXAeacp9aPct8jHUllMG3uea3kfGq59HAvz7BKG2nTIYrww+f2bRrVDGxaenI0y8k/gqxPfUBjHfD85tSPzQQSoyQZrD9V1TJ2fF2De+Kj6xJsO5GTyy4Cc3YvgWOw9f/fuWWKgdpwxi+1Zafg6AYkwMLGHUKFXbMALAjjbhgWa2+EyTQsxXM7k8BndCSEXGSPslfZZq5y2p3J+K06Qx+A360Rcy5f7vg1aoI927M61biv52VAeXQd/6dmQK30sokwCAzjHhzvHJQfe6Een2z4CznzlebYRfIf9+JYM6lXCQGfbxWPHqZf5IL20yRRvldn98jnwK7V++9+3lqIeZ8brYYm8SjxDz6FNufSWXdiUAUOfIpTFy88P3tH31HsuuUkYp63hArIoon88nrktKjiFleyQg1mOC2yovzzMI8Sdm2p/Il1A7VRnE9KkJed0tJlMDwb4drmP2KwIAOsaYHcMHDt+7j2mfVmapDkgx68IQbVg7ek5ALMtpFOblgZV6hdKn2j9yL/eHgWwdQJS4mFTV7UIAwE437kHnA4E73cjkuyVi7Vn/G450ZsD/X6l0uU5Aq/pgETP/wwbkPzKZR6jukGL6NkheHi1beqRzff5/cQb1GKTudaTxPvfcPnmO3PxM+I7aT5IHALGGA0c2Nv+HE/CM5pjmA3UK+08VekuEgjdRHsdIse5jR3Cp2Cy8qM8+Ebz37wR8OEI+oVmcrQw8B2BQ21UJdxw0cQvSeZ/7WGA9/UgyBoFRBOqIYEssI8YBuhP2avqnbg5+njj0ysx18GOQ10l1+9/k8jwpc30p1DzJ63wpJat3Blbi+MT+p2TXa9kewl83gLPXkHgCzovsJ4wABHSopif1CTumrRUzsx7z+qy2C7kyGy7mB3rjEQAsHgH3L5/4JgVm6RNI6NVhoAtPByCD5rGUEobOHxi07JLSTZazbw5w+B6lvT4gPUkrIMAtgAqgRspyeqR8hrPZaPhNTa/e2Y+KUNZByuONEfIhi9EEdtJH/zH6474/uUApTu07VZwEjyubGwKy2lNpYz5tE+BK9km9vn+IXR6SmLTxCRAAxGcaK8f9YmU0lI9nOddpXsNgQWCB6yj9dwLzIPnEBD6ur3eYeJOevv2EtvJoQN3mW0Mh/exldTtccHmby/ctAvy/LCAtSSsgQABQAdRIWW6vfGL9MtfyyutVkfzqJRtfkZ3Yy4Zdtvmqvl+xyzZ8HUbAtwCOkDzEG2JXKPFpIRkMmNa/1hdi/hEprHcCu/e+6agtGQEYhSTtBwQAaflPVLrb5nMTbdDHdx/Stqv0sX3opv9PGXh9/hDbTYkZ+g8h2Hva52vTf+t983G3/Mq431T3xbUBWXsC45YB6duY9MUBlb4mIC1JG0qg11mobdzOJ9HXBrb71kr/qFQXv1kqyxOrQsxXpVdJdflMOc/0kXVDGm0o7YU1t9u7Anx2fWn7/hjcGcDbSf3oKMyfYcBTAIGdqenJfYXyU2m7ASvqA9yvpGUGTD9Isu8p0dxBEnakebfec2XWAaSGt+4jX4hQzjci5NFPFiEH0ZX7KYhtnyawtv4uF8DCTwNgmRDgFkAmDTGBG97ZzpVeN8E2Y33lGd6XSuuN9WVFn3ky1pGBeftWxWcC8yD5YAQOUjKPGIWYA867QjLoM21IAMD8kj5hD20+fbBkT6e6OyAtSSMT8FArlj+BZeXiidLJkmdtTzTxyVf9noF/iFR3+8Y4+B8mv1eSsPoJ+ILA/ev1AUXPV9ofSX4qoA4LCQA8ORbrn8CeSjLopNF5/RdHiqoIeIg5tfl+ENYfAQcAZ0i3SPdJPmH6xL+XtKOUamRnb5V9ljSoOdC5VapzwuKgvjY1needPE/yOg6Dmked3DfrWLbZjzB6pGsQe4kS/XaQhKSBQAQCs5WHVzlNZnVfISaraMMK3kL1sXIyD/v+LtChdyg9J/9AiIHJHTz6qZFDA/K5XWnPlXyCrdqWDijAk2MxCLSWQKorxdYCb3DFj1fdngion4cUDw9IT9J4BA5WVh5RCrFjQxL3kdajRoMaE9IGJUe6RhAgAGhEM2ZRieMCvThI6T10jKUnsKRcCA3G/ld5zKmhKn56YVDz7abQJ1YGLZt0EEhOgAAgeRM0woEbVYs/BtbkPYHpSR6XwNuVXcjJ1ZPzTo/r0pi5rTbmp7196PkOIXMdeiuFrSCQKQECgEwbpjC3PPs/xDZT4m1DMiBtdAKeIf/qwFz91ErVtkFgAb8PTE9yCBRLgACg2KbLyvFTAr15c2B6kldDwHMBQuxUJQ6ZF9JL2dN72WiCbUKeWpkgW76CQP4ECADyb6PcPfy7HLwwwEk/ikoAEACwwqQvVd5rBuT/N6W9OCB9L0lDA4AzVQiTAXshzTaNI0AA0Lgmrb1CPoCGXOXtqvTTaveaAnsh4MeE39jLhhNsU/U8AD8OG/LbE16Y5qgJ/OcrCDSWAAFAY5u2toqFPvvv2f9YvgRCbwOcU3HVpij/0PkjX1Mesyv2k+whkB0BAoDsmqQ4h0IO8B7+37+4GrfL4W1U3ZBh9suUPmS53l5o+3cvQuw+JXYQgEGgVQQIAFrV3NEre5tyvDkgV/8O/eoB6UlaDwEvMT2oLVDC8wZN3GO6vXvcbqLNvqwvr5poA76DQNMIEAA0rUXrrc/5gcWFnFgCiyZ5HwRC2+mCPsoaZNM9lChkPQCX+bjk21GP+R8MAm0gQADQhlauro6D/gjLsEehJ5bhfHitlsCeyj7kWBHaT7rVbpI2eF23jXr4/mptc6DkUQsMAo0nELJTNx4OFexKIOTA7uVmX9S1BDbIgcAqcmLrAEcuV9qQJ0V6KfotvWzUwza/1jbvkrxKIAaBRhMgAGh081ZaOT8+dUVACTsrbcgPuQQUTdIBCISM1niG/bUDlNlPEk8E3KWfBBNs+yN993qJ3wmYABJflU+AAKD8NkxVgxkq2PdNBzXft8XKIbBnoKt/CkzfS/KP9LJRj9ucpO32lWb1uD2bQaA4Ar53huVN4Kdy7+4AF6cqrX/YJbZdE5hhyJByYNEkH4BAaHv9ZYAy+03yCiXwY4uxgo3fKy/X+1jpJRIGAQhEJvCU8kPjM9g2kPfGFfH9aKBft1bkF31p/L4UymbtgDbfr6b29ryU2CObiytPzzHw0sahDEkPw+E+UPX6GOquE1vsHWXi0vi2SQRCRgBWFIj1mgSjJXXxug2DWh0jAPZte+mtfhPRfMD+mbSldJRU9YRGFYFBoHoCBADVM25qCdcFVMwnEl9VYWURCAkAbldVH6mpul9ROetWUJbnAxwibSWdIjkwwCBQLAECgGKbLqnjvgLyEP6g9oJBE5IuKYGQdvPJcmZN3q+qck6U/KhpFebRjFdJDgSOluZLGASKI0AAUFyTZeHwnfLCjwEOah5KxcojEDIC4NreUmOVd1BZXt63SvPSwZ4b8FzpixJPDAgCVg4BAoBy2ionT0MP5JvlVBl86ZnAJtpyiZ63Hr1haL8ZnePEnxyur9898SZRvvVo2MelDaTXSSdLIQGykmMQqJ4AAUD1jJtYQuiBvIr7s03knFudJsuhNQOcCu03gxT9bSU6eJCEA6TxrYBfSq+WzOlQ6bcStwgEAcuPAAFAfm1Sgkch6xJ48l/I42Ql8Gmyj+sEVC7FELmPcT+W3hDg9yBJH1CiH0kvlVaRPDJwpOTbZxgEsiBAAJBFMxTnREgA4AlaU4qrMQ4PEwgJ3u4ZzqTmVy94drz06ZrLHS5utt54ZODtkke/niN9QPLoALcKBAFLQ4AAIA330ku9N6ACawWkJWl6AiEjAKkCAFPzyNOnJN8SCJnHoOTB9lfl8E3JowOrS75l4P+vlp6SMAjUQoClgGvB3LhCQkYAfAWElUsgJAAI6TexiL1XGfkplIOkO2JlGpDPQ0rrSYOWbTVpR2kXaS9pG8nBCwaB6AQYAYiOtBUZ3h9Qy5ATSECxJI1EIOQWwIPy4clIfoRks5sS+1n+uucF9OLzfdroFOmj0naSedvPI6QUkyhVLNZUAgQATW3Zauvle5qD2hqDJiRdFgRCAgAPb4f0nZgAVlRmnhfgiXqel5KredTkBOmd0nRpI8lzCX4u5TCiIjewUgkQAJTacmn9DjmIL5vWdUoPJBDafiF9J9D1Uck9tP426TrpUKmE4+HN8vNI6R8lz6fZXDpM+pX0sIRBoGcCJXT4nivDhrURCDnQLF2blxRUBYHQ9gvpO1XUx3muIv1QukjaXSrJZsjZ70j7S66H5w58RrpQWiBhEBiXAAHAuGj4YhwC8/T54+N818vHS/WyEdtkSyA0AHgk25ottpiXDz5H+q20U8Z+jueaT/gOYj4t7Sp5QqFHCn4h5TTyInewHAgQAOTQCmX5MD/Q3dATSGDxJA8kEBrAOYDM3V4iB30iPU3yTPxSZ+F70qXnChwoORjYTzpC+ruEQaCIe140U14EQgOA0BNIXjTa501oAFfSsPTL1LxnSZ4j8H5pGalU86jd6ZInE3oirtcgOFp6VMJaSoARgJY2fEC1nwhI66QEAIEAEycPDQBCA8gU1d9Yhf6XdJvkBXu2lko278O+zeFfMlxH8lMFf5SwlhEgAGhZg0eobugVXOgJJEIVyCKAQGgAV2IAMIzLk+zeJ/1JulI6XFpTKtkekvNHSl5zwPMejpVKuE0jN7FQAgQAoQTbl97PcocYfS6EXvq0ocvohvaf9ASe8eD5evm6dKd0vvSv0jSpZLtEzh8krS99TnJwgDWYAAfjBjduRVWbFJjv3MD0JE9LYE5g8aH9J7D46Ml9DN1V+pp0i+Sh9E9LvpoODZaURRK7R6V+UpomfVryLxtiDSRAANDARq24SqEH8NATSMXVI/suBEIDuMld8i/9621UgU9JforgPukEyffYN5BKMz9F4DUFpkkeEWDfFYQmGQFAk1qznrqEXtWEnkDqqSWljEcg9CTQ9ACgk9vK+uf1kh+9myndJfmZ/HdI60mlmBdv8oiAJ0MeXYrT+NmdAAFAd0ZssSiB0AM4AcCiPEv7LzQACB1BKo1Xp79r6Z8DpB9It0nXSN+WXiNNlXK3O+SgnxzYS/KSxFjhBAgACm/ABO5PUZkhowAEAAkaLWKRoQHAchF9KT2r56kC/nniX0penMcnVQcHDhJWknK1s+XYltK3pKZM6syVdaV+EQBUireRmS+uWq0QULPQE0hA0SSNQCA0gFs+gg9NzWK6KubbA75N4PkDF0qfl/aUcnt81vuxF0faX7KvWIEECAAKbLQMXA45iBMAZNCAAS48FpDWSUOCx8Cii0ruWyU7Sx+XfMV9v/Q76RPSLpK/z8FOlhPbS1fn4Aw+9EeAAKA/Xmz9DIGQg/i9QCyagB8RC7GQ4DGk3NLTegGmPaTPShdInqF/lvQRaVvJI3Op7FYV7GDFwQBWEAECgIIaKyNXQ+5PeiY0Vi6BkPZbVtUOnURaLrm4npvlXtKXpcslr0Hge/L+LAVj/8rjayWvKogVQoAAoJCGyszNNQL8uTMgLUnTEwgJAEL6Tfqa5+2B1xk4TPKogEfZfirtI4VM2FXyvuwJbe0fG/pZX6nYOBkBAoBk6IsuOORAHnICKRpaQ5wPCeDWbAiD3KvhETo/rneG5Pb6prSFVIc9qULeJh1fR2GUEUaAACCMX1tThwQAdwuarxSwMgmEBAAh/aZMWum9NvP3SZ6kd570JmlJqUrz/v1P0sVVFkLe4QQIAMIZtjGHkAP5AgFjImC5vSYkAGAEIG27v0jFHyfdLH1A8jyCqsy/KOj1DEInjVblH/mKAAEA3WAQAr7fGGIhJ5GQckkbRuApJQ+5hbN+WPGkjkRgXeXzDWmm9EFpilSFeT9/o8SIXxV0I+RJABABYguz2DCwzjcGpid5GgK3qdi5AUWH9puAokk6BoFV9dlXpRmSr9arsHOV6feryJg8wwkQAIQzbGMO01TpkL5zVRuhNaDOfw6sAwFAIMCKkk9Xvl598HRpvQrK+HflGTJyVIFLZGkCIQdxCLaXgIcM1w6o/pUBaUmajkDoam/T0rlOyT0Q2FfbODh/cw/b9rPJw9r4w/0kYNt6CBAA1MO5iaVsHFApRgAC4CVMGjIC4J/GXT2h7xTdGwE/QniM5B8lWrK3JD1t9XNt5VsNWEYECAAyaozCXAl5rtiTg/5eWH1xN2y9980BWBSBd8jbM6RYSzd7fYCvFUWgBc4SALSgkSuqYugBnVGAihqmomwfVb43BeQdEjAGFEvSAAJ7KO2ZkkcFYphHFu6IkRF5xCFAABCHYxtzIQBoV6v7/r+v4ga10P4yaLmkCyOwo5KfJi0Vls3Tqb02wNER8iGLSAQIACKBbGE2W6rOIf3nvBYyK7nKvw90fqvA9CRPR2AnFf1jafEILvhpAywTAiEH8EyqgBuJCPgngTcNKPscpWWBkACANSf9bUB5k5R2m4D0JE1PwEsIvyeCG55Ien2EfMgiAgECgAgQW5zFCwPq/oDS/jEgPUnrIzBHRV0QUJzv/y8TkJ6keRD4styYHsGVkyPkQRYRCBAARIDY4ixCAgBjC7mqbDH22qvuk3/ICoCh/aT2ClPgmASW1af+ZcFQuyg0A9LHIUAAEIdjW3PZObDiZwemJ3k9BEIDNd9DxppB4BWqhicGhhgBQAi9iGkJACLCbGFWngjo9cQHtQuV8LFBE5OuNgKhAcCetXlKQXUQ+HhgIf410JsD8yB5BAIEABEgtjgL95/dA+r/uNKGnlwCiidpDwRu0zaeuDWobaSE/ArgoPTyTOclg9cKdO3awPQkj0CAACACxJZnsWdg/Y8JTE/yagkcp+xDnv/3YjJYswhMUnX+MbBKtwSmJ3kEAgQAESC2PIu9A+t/itI/FJgHyasjELpwS2j/qK5m5BxCILRdZ4YUTto4BAgA4nBscy7PUeVDVnnz7PIT2www47r7Mc0ZAf75VyP3CUhP0nwJ7CLXJge4d1tAWpJGIkAAEAlky7N5VWD9jw1MT/JqCIRe/e8ut5avxjVyTUzAjwSGLATGqF/iBnTxBAAZNEIDXAgNALzM7O0N4NCkKixQZY4PrNArA9OTPG8Czw1wj6d/AuDFSkoAEItku/PxQi8hM709yezIdiPMrva/lEf3BHi1hNK+NiA9SfMnMD3ARQKAAHixkhIAxCLZ7nzcj94UiOA7Sv9IYB4kj0fAy76G2J5KHPqoWEj5pK2eQMjPBIesLFl9zVpSgh/nwCAQg4AfC/pKQEb3K+0R0r8G5EHSOAR+o2yuCMzqzYHpx0ruR8f2GuuLHj7zCJV/gAqLR2C5gKyWCkhL0kgECAAigSSbxZ4vBtZVASy+obTvlZYMyIOk4QS+FJiFf/jnNYF5jJV8NX3417G+6OEzzzHxvAaOeT3A6nGTkKcAmBzaI+QqN+MWQJV025f32wOrfIfSHxOYB8nDCPxByT0pM8R8O2iFkAzGSesrzpXH+a7bx/O1wa3dNuL7vgg82NfWi25cRf9YtAT+60qAAKArIjbog8DB2jZkWNBF/af0hN9gSQh8PkKp74yQx3hZrDveFz18fn0P27BJ7wQe7n3TUVuGHidGZcgH/RMgAOifGSnGJ7CivvLVX4j5IP29kAxIOzCBc5Xy1wOnfibhdnrZPjCPiZKHBADnT5Qx3/VN4O99p3g2ASMAz7JI9o4AIBn6xhZ8mGq2eGDtPqH0/sUwrD4CfhQzxgRMt3+VFrL4zO+qdKyFeYesEjm9hbyyqzIBQHZNUrxDW6oGLwushe8tfiwwD5L3R+CH2jx05r9n2oeOAHXzOuS36P+ozEPuW3fzrU3fO2C8OqDCIYFcQLEk7SRAANBJg/exCHw4QkZHKY9LIuRDFt0JzNImH+2+WdctDtcWITPDuxagDUICAM8tOamXQtimK4GbtcXsrluNv8Em43/FN3URIACoi3S7ytlN1d0psMq+wvAjgUwIDATZQ/L3a5vQK+NVlUfoUyA9uPr0ipNr97LhONv8eJzP+bg/Aqf3t/kiWztIfM4in/BPEgIEAEmwt6LQGLPJPWT75VbQSlfJY1X0CRGK9wiCfyCmDgsJLi+UgzfU4WTDywgZSdlYbBwEYIkJEAAkboAGF7+n6vbSCPX7jPK4LEI+ZDGawEx99J7RH/f9iWfmx8in14Jf3uuGY2z3lD77xhif81HvBDxBN+SJCh8bsAwIEABk0AgNduGLqlvoEwFewMUTyx5oMKcUVXtchb5RivGzrJ9UPkvVWIn9VVbIapE/UnovK4wNRuD7ShZya27vwYolVWwCBACxiZJfJwE/E35w5wcDvr9Z6Q6UQg46Axbd2GTvU8286l+obaEMDgnNpM/0Xg3wJX2m6dzcQaVHlrD+CcxVku/2n2xhCgduuy/8jzdJCRAAJMXfisL9A0ExFv04S/n4ShMLJ+AfXbJCzaM7XrRpUmhGA6R/wwBpOpN4yemLOz/gfU8EfqSt7ulpy7E32lkfswrg2Gxa+anvyaHxGWwb2Cs2zoDv1wPr0Jn8BxnUp+T+eor4xTphH5SwLXxLaFkpxPwo2mNSye1Zp+/3idUqIcCV9lvwXtjfQpZSDmyGfJLX2YFLLKsJAYCHXH07IIb55PUrqcS2TO2zZ8D7l/pimB/785Vgyjr5Nkao/ZsySFmHksp+WyDspZX+fngv7G8EAHSGhZ1hvANBEwIA1+1qaYoUw5zPqdJ4zPh8NBsvqhTjVsxw+x2fAf+Z8iF0NMO3MU7MoC6591k/929WIfZPSpx7Pev0jwCADtF1h2hKAOAd6wshR48RaT3r/NdSnTtsqWVdJE4rjuAX8u/rMuL+jyEVGUrrURGvOVFq+1bt90yxWUUKNY9AVe1rSfkTANAhuu4QTQoAFqi9Xxx6FOlIP1nvfyqVtNPX7esp4hNr2N/o15P+JtVdj/HK+7N8iTGZeR3lc0tG9RqvvnV/PkdMYvy649awHbXPEADQKUZ1ipE7eJMCANftDmk1KZZ5WNIjC09KI9m1/X8/rx06RK4sFprz8gIwuXE9dKGHYW/WV/IbM6xfKt5+5O9lYUgXpj4DrqP2GwIAOsWoTjFyZ29aAOD6+X5ijKs2ZbPQDtS7R6WR/Nr4vxf5eddCMvHefClTvp6dPjVSNddWPtdmWs86+/I8MXh1JKZ7wXPM4xIBAB1jzI7RuaM3MQBw/b4Y6eDSmY1/ivgvUie/tr3/q+q/YyeUSO/93H3Ooyzfi1RPZ+OFhk6T2tZ3huv7kOoe68rfgT7zK8buSwQALd7Jhne2bq9NDQBc74Ol2OZHjb4j5Xyy6tbmg37v+RAxZ/oPt437YO6jK55fEuNe9XCdfeL6vNS2fuQAcvNhCBFe/0l5DNqfm56OAIDO0XXnaHIA4HuMu0Y4yIyVxW768Dqp6QcR1+8WKdYVm7JaxNbVf3dIJXC8SX7GfNrBIPaWZkol1D/Ux5NUz5jzc9ZXfg+0hN0g7AkA6BxdDyxNDgC80/gA8QKpCvN6AR+XvKMNsoPmnsZX5b5KDV0RT1mMaT4ZzJBy59Dpn5/pj21euvbbkn+LorOsprz3PvgWKaZ5BOUcqSmMqqgHAQAdpOsO0vQAwDvW3dJGUlW2hjL+ruTJcVXsyHXn6QlaXpPdV+dVmW8lXC7VXbcY5b2vIijbKd8zC2UyFlcHND+RPPExtn1YGY5VJp89y4UAgE7SdSdpQwDgg8KtUpVBgLJ/+oT5Tb36yrnEA5FvmXxf2lCq0lZU5iUv2uJAb7cKAfmXCC+RSuxDwz47kNmqIka+rdeUYHuYVxWvBACF70RVdIqRebYlAHC975KeJ1VtK6mAD0jXSyN55/j/zfLTV1SrSlXbKiqg1Cv/zrbzTPbQfacb6520wXFSKSc7jxwdK3kkoyrbTBn/XepsC96PzYMAgI7SdUcJPYhtXBjje+VvaJ2VRU/mRYR8EP+WNEvK6UBlDr5t8SLJftZhXg3vKiknDiG+eH0An5CqtrVUgAO0y6QQf6tKO0N+fVJy+1Zpzt8jeVXVo2n5EgDQWbruLKEnw9ICAO/kj0ivkuo0T1raXvqU5OHvuq/qfHV2sfQ5aUdpCalO83Dw7VLTDrJ+gqHqWyad7eSyHAz8TnpMSsHT9/avkL4sVTXMr6wXMY+qXSmlqG+pZSYPAOq6slikp4z4x42HjU/Aw3VeSGNQcwBw/aCJE6bzQexD0jcS+bCUynVA8ELJCwxtIW0qxZhxP0f5+BHFa6SrpUuH5BNGCnuFCv25tFyKwmso8y6V4Tr6pFin+SkU9589pG0k9yEHCA42Y5pPJO5Hrt/vpXOlv0l1mScRniF5P8F6JzBbm1axbkfPHhAA9Iwq2YZtDQCGgR+nN++UPCqQg60uJzaQPAN/6pBW0attRckH9ycl34O23T8k3xf1iWimdI+Ug3mU4VOSH5WMfVLKoX6dPrj/HCid1vlhgvcOID3P5bmSn05Zb+jV/cpX0T4mD7/q7cK+tEDvH5DcdzxSM0u6TXIQOVNKdSHloNgnf+8TWH8EkgcA/blbzdbuuGh8BtsGYt+4AXxnqA4+aGLxCPiEc5bUpn1vvur7rngIW5+Tb1V5pKFNfShmXZPfAmh61N/6PbQhADyRy7dBPiLRZ8MbdT9l4eHivcKzKiqHSfL2e9IvJF9lY4MR8CjFO6SzpeHRr8FyIlXrCcSMqJqYFyMAi15hnKM9ZsPW7zWDAVhZyY6Wmrif9Funm8XBV7BYfwQ8cnSq1C9vth/NLPkIQH9NX83WdIzRHaOTCQHAaD6Pqiv6vvWUarpk43L1Fdshku8fd/attr/3LYFPSZMlrDsBjxzdLbW938SqPwEAnanrzkQAMP4B5wb1H8/uxsYnsL2+ukiKddBqYj7Xio9PbtjYBKbr45OkJrZ9yjoRANCpuu5UBADdDzw+we0hYc8S8Oxs3+v2EwkpD3Ille1JkX5UD3uGgJ9Y+LQ0RyqpHUvxlQCAjtV1xyIA6P3gc7r6025Sm83PYv9M8mNjpRwIc/LTCzL9QNpIaqstr4ofLt0p5dQ2TfOFAIAO1nUHIwDo/yB0qfrVAZJnfbfBfI9/T+k0iSv+/vvLWCcWL0R1orSD1BbzksZfkrzewFhM+CwuFwIAOlrXHY0AYPCd7q6hA1pTr+bWVP0+InmlRw7O1TH4vfi+WYqxCqSyycr8WO3u0k+kuRL9qD4GBAB0uK47HAFA+A7pq+ILpPdLXsGvZJsq598m+XaHh6s5YNfHYLZ4+zHKfSWvoliybS3nvyp5VUH6UBoGyQMADx2mNnc+bHwCbV8KeHwyg33j/naJ5BPomdLlkod7czbf199b2kfaXeKxNUFIbH6k0rdcfit5QRz/n7OtKOdeLL1Ecj/yJFEsLQEHlPwWQNo2oPSWE/Ba/edLFw/JKw56nYFUtqQK9tWZF6mxdpN8bxbLl4CDyqslBwPnSVdJt0gpbQMV7sBxZ2lPyRcSpY9aqAqNMgIANad3HgwCuRDw7PmbpGukGUO6Va/WLClWf11Dea0v+UDtq7HNJS95bDkIwMom8KDcdyBw5dDrX/XqOSm3SY9JMcy3g9aW1pGmSS+QfNK3fMWP5U2AAEDtE+uAmndT410TCPie+93SvdIDkkcPHpL8+VijBkvr86Wk5SUfrFeWVpV80PbnWDsJODjwI3buS+5DnqPifuTg0yeFYXMg6ImHU6Rlhl6HT/r0IQEp3AgA1IAEAIX3YtyHAAQgAIG+CSQPAP6hb5dJAAEIQAACEIBA8QQIAIpvQioAAQhAAAIQ6J8AAUD/zEgBAQhAAAIQKJ4AAUDxTUgFIAABCEAAAv0TIADonxkpIAABCEAAAsUTIAAovgmpAAQgAAEIQKB/AgQA/TMjBQQgAAEIQKB4AgQAxTchFYAABCAAAQj0T4AAoH9mpIAABCAAAQgUT4AAoPgmpAIQgAAEIACB/gkQAPTPjBQQgAAEIACB4gkQABTfhFQAAhCAAAQg0D8BAoD+mZECAhCAAAQgUDyB1AHApOIJUgEIQAACEIBA/wSSn/9SBwD+vWsMAhCAAAQg0DYCyc9/BABt63LUFwIQgAAEciCwhJxIeg5OWrgqPzmHVsAHCEAAAhCAQAICSUcBUgcASSufoLEpEgIQgAAEIDBMIOlFcOoAIGnlh1uAVwhAAAIQgEACAkkvglMHAEkrn6CxKRICEIAABCAwTCDpOTB1AMAIwHA34BUCEIAABNpGoNUBwJNta23qCwEIQAACEBgi8ERKEqlHAOalrDxlQwACEIAABBISSHoOJABI2PIUDQEIQAACrSYwP2XtCQBS0qdsCEAAAhBoM4FWjwA83uaWp+4QgAAEINBqAq0OAJJWvtXdjspDAAIQgEBKAk+pcG4BpGwByoYABCAAAQgkIJD8Ajj1HIAFgp70MYgEjU6REIAABCAAgdYHAO4Cs+kHEIAABCAAgZYReDh1fVOPALj+96eGQPkQgAAEIACBmgkkP/cRANTc4hQHAQhAAAIQEAECgBwg0BUhAAEIQAACNRMgABDw5BBqbnSKgwAEIAABCCQ/93ELgE4IAQhAAAIQqJ8AAYCYJ4dQf7tTIgQgAAEItJzAA6nrn8MIQHIIqRuB8iEAAQhAoHUEkl/85hAAzGpds1NhCEAAAhBoO4G7UgPIIQC4PTUEyocABCAAAQjUTCD5uS+HAOC2mqFTHAQgAAEIQCA1geTnvsVTE1D5S0hzpUkZ+IILEIAABCAAgaoJPKIClq+6kG755zAC4B8DSn4vpBsovocABCAAAQhEIpB8+N/1yCEAsB/Jh0LsBAYBCEAAAhCogUAW5zwCgBpamiIgAAEIQAACHQQIAHKD0eEPbyEAAQhAAAJVEbijqoz7yTeXEYCb+3GabSEAAQhAAAIFE7gxB99zCQBm5AADHyAAAQhAAAI1EMjinJfDY4BmvZLEksA19DqKgAAEIACBpAT85JsfAZyT1AsVnssIwIPyhSWBU/cGyocABCAAgaoJ/FUFJD/5u5K5BAD25Vr/wSAAAQhAAAINJpDF8L/55hQAZAOlwR2PqkEAAhCAQFoC2ZzrcgoAGAFI2ykpHQIQgAAEqieQzbkupwAgm6io+vanBAhAAAIQaCmBbM51uTwF4H6wonS/lFNQYr8wCEAAAhCAQAwC85TJCtLjMTILzSOnk+1DqkwWiyOEQiU9BCAAAQhAYAwCV+qzLE7+9i2nAMD+XOo/GAQgAAEIQKCBBLI6x+UWAFzWwAanShCAAAQgAAETyOocRwBAp4QABCAAAQjUQyCrACCnSYDGP0XyXAC/YhCAAAQgAIGmEJitinjZ+ydzqVBuIwCeHHF1LnDwAwIQgAAEIBCJgK/+szn5u065BQD2KatJEnYIgwAEIAABCAQSyGr433XJMQA4LxAyySEAAQhAAAK5Efh9bg7lNgfAfFaX7pZy9M3+YRCAAAQgAIF+CCzQxlMlzwPIxnIcAbhXdP6SDSEcgQAEIAABCIQR+IOSZ3Xyd3VyDADs1+/8B4MABCAAAQg0gECW57RcA4BzGtDgVAECEIAABCBgAlkGALneZ/cPA/1dWsLkMAhAAAIQgEChBObK75Ulv2ZluY4AeDGgP2VFCmcgAAEIQAAC/RO4QEmyO/m7GrkGAPbtbP/BIAABGi9+aAAACopJREFUCEAAAgUTyPZclnMAcErBDY7rEIAABCAAARM4OVcMuc4BMC8HJ3dKa/ofDAIQgAAEIFAYgZvl70a5+pzzCIDXTD41V3D4BQEIQAACEOhC4Fddvk/6dc4BgMFkDS9py1E4BCAAAQjkTiDb4X+Dy/kWgP1bWrpPWtb/YBCAAAQgAIFCCNwvP9eQvAxwlpb7CMAcUTsrS3I4BQEIQAACEBifgG9hZ3vyt9u5BwD2MeshFDuIQQACEIAABEYQyP7clfstAPOcKt0uLeN/MAhAAAIQgEDmBB6Uf+tJj+TsZwkjAL6P8pOcIeIbBCAAAQhAoIPA9/Q+65O/fS1hBMB+bijdKPHbAKaBQQACEIBArgQel2PTpbtydXDYrxJGAOzrLdJJw07zCgEIQAACEMiUwLHyK/uTv9mVMgJgX7eXLvUbDAIQgAAEIJAhgafk05bSNRn6NsqlUkYA7Phl0m9H1YAPIAABCEAAAnkQ8Eh1ESd/4yppBMD+bid5FKA0v+07BgEIQAACzSXwhKr2fGlGKVUsaQTATC+XWB64lN6FnxCAAATaQ+AYVbWYk7+bpcQr6c3l91VSacGLeWMQgAAEINA8AvNVpU2lv5ZUtRJPor6/4lmWGAQgAAEIQCAHAkfIiaJO/oZW4giA/V5Tul5awf9gEIAABCAAgUQEvFjdJtLfEpU/cLGlLqzjFZaelF46cM1JCAEIQAACEAgncLiyOD88m/pzKHUEwKSWlP4sbeZ/MAhAAAIQgEDNBP6k8l4o+QmA4qzEOQDDkOfpzWHD//AKAQhAAAIQqJGAR6HfIxV58jenkgMA+3+2dJzfYBCAAAQgAIEaCfxAZV1SY3nRiyr5FsAwjJX05i/SOsMf8AoBCEAAAhCokMBM5e1Ff2ZXWEblWZc+AmBA/t3ld1VOigIgAAEIQAACz0xAP0Qgij75uyFLfQpgZCe8QR9sKG018gv+hwAEIAABCEQk8G3l9f2I+SXLqgm3AIbh+VbAldL6wx/wCgEIQAACEIhIwBeb20iPRswzWVZNuAUwDM+3Ag6Q/HQABgEIQAACEIhJYK4ye6PUiJO/wTTlFoDrYrtTekzax/9gEIAABCAAgUgE3ql8To+UVxbZNOkWwDBQ1+lE6bXDH/AKAQhAAAIQCCDgx83fHJA+y6RNDAAM2vMB/NPBz/E/GAQgAAEIQGBAAlcr3Y6SR5cbZU2aA9DZMJ4P8ArJrxgEIAABCEBgEAL+gZ/XSI07+RtGUwMA1+06yQ3HpEDTwCAAAQhAoB8CnvT3KunmfhKVtG3TJgGOZD9TH8yS3IgYBCAAAQhAoBcCT2mjQ6TTetm41G2aHgC4Xa6Qlpd29j8YBCAAAQhAoAuBT+n773TZpviv2xAAuJHOktaWtvU/GAQgAAEIQGAcAj7xf3Sc7xr1cVsCADeah3I2lrbwPxgEIAABCEBgBIGf6v9/kXwLoPHW1McAx2u4yfriJOnl423A5xCAAAQg0EoCv1StD5QWtKX2bQsA3K5LSydLe/kfDAIQgAAEWk/g/0TgDdL8NpFo8mOA47XjHH3hEQBHexgEIAABCLSbwPGqfutO/m7yNs0B6OziT+if/5U2kLbq/IL3EIAABCDQGgJHqKZvk3xOaJ21NQBwQ3uSx6+kqdIOEgYBCEAAAu0h8N+q6nukVkz4G6tZ2xwADPM4Q298W2BPqY1zIoY58AoBCECgDQR8wv+s9OE2VHaiOnLCe5bOAXr7U8mTBDEIQAACEGgegUdVJf+qn0d/W28EAIt2gR31r2eDrrHox/wHAQhAAAKFE7hL/ntZ+D8WXo9o7rfxKYCJ4F2iLx0E/GmijfgOAhCAAASKInCBvN1O4uTf0WzMAeiAMfTWPyHsWwErSEwOHILCCwQgAIECCfh+/7clD/s/VKD/lbrMLYCJ8b5WX/9YWnHizfgWAhCAAAQyI/Cw/Pln6cTM/MrGHQKA7k2xqTY5Ttq6+6ZsAQEIQAACGRC4SD4cJN2SgS/ZusAcgO5Nc502eaH0UWle983ZAgIQgAAEEhGYq3J9rH6xxMm/SyMwAtAF0Iivt9T/nh/AaMAIMPwLAQhAIDGBq1T+W6QrE/tRTPFMAuyvqe7V5kdJnliyozRJwiAAAQhAIB0BP9v/Kemt0iwJ65EAIwA9ghpjs+fos29K/LTwGHD4CAIQgEANBH6tMg6TZtZQVuOKIAAIb9JXKgsHAhuGZ0UOEIAABCDQA4GbtM37pNN72JZNxiHALYBxwPTx8Q3a1r8o5fUDtpWWkTAIQAACEIhP4G5l+THpn6Xr42ffrhwZAYjb3sspO/+6lDsoawfEZUtuEIBAewnMVtW/K31R8vP9WAQCBAARII6RxWr6zL809Q7JKwpiEIAABCDQP4EHlOS/pa9Lfo9FJEAAEBHmGFktr8/eJn1QWneM7/kIAhCAAARGE7hVH31P+r700Oiv+SQGAQKAGBS757GkNvFa1J60slX3zdkCAhCAQCsJXKpae1L1L6QFrSRQY6UJAGqEPVSUJwp6sQovUzl16DNeIAABCLSVgK/w/0fy1f4VbYWQot4EACmoP1Pmsno5UDpYepHEExmCgEEAAq0g4Kv730lHS/6xnrkSVjMBAoCagY9T3Cr63AsKHSDtI02WMAhAAAJNIvCEKnOJdIJ0vHSPhCUkQACQEP44RfsJgr2lnaRdpS0kRgcEAYMABIoi4Kv8K6ULpYuks6T7JSwTAgQAmTTEBG74MUL/7sDO0i6S5xCsLGEQgAAEciLwNzlzueSTvU/6ntD3iIRlSoAAINOG6eLW2vregUCn1uqShq8hAAEIxCLgH925Rpoh/XFIfu8fSsMKIUAAUEhD9eDmmtrmedIm0mbSpkNaT68YBCAAgX4J+GR+q+Qld31yv27ovU/8vtrHCidAAFB4A/bgvhcj2kiaJm0gbdjx3p+xZLEgYBBoKQHfk/dJfuYYukmfPSZhDSVAANDQhu2jWsto2zUkjyB4AqLl2wl+dXDgAMLzEIbf+3+nWUpaWurVvH63ZwFjEIDAxAQm6WvvZ73ao9pwnuT77dZsyfubf6DM7/2c/b3S3dJ9Q/IQvt/PkbCWEiAAaGnDV1BtBwVTOvL1gWh+x/+8hQAEBiPglUSX7Ujqk/bcjv95CwEIQAACEIAABCAAAQhAAAIQgAAEIAABCEAAAhCAAAQgAAEIQAACEIAABCAAAQhAAAIQgAAEIAABCEAAAhCAAAQgAAEIQAACEIAABCAAAQhAAAIQgAAEIAABCEAAAhCAAAQgAAEIQAACEIAABCAAAQhAAAIQgAAEIAABCEAAAhCAAAQgAAEIQAACEIAABCAAAQhAAAIQgAAEIAABCEAAAhCAAAQgAAEIQAACEIAABCAAAQhAAAIQgAAEIAABCEAAAhCAAAQgAAEIQAACEIAABCAAAQhAAAIQgAAEIAABCEAAAhCAAAQgAAEIQAACEIAABCAAAQhAAAIQgAAEIAABCEAAAhCAAAQgAAEIQAACEIAABCAAAQhAAAIQgAAEIAABCEAAAhCAAAQgAAEIQAACEIAABCAAAQhAAAIQgAAEIAABCEAAAhCAAAQgAAEIQAACEIAABOoi8P8BmZleVk1yUpkAAAAASUVORK5CYII=;imageBackground=default;" parent="Lc69PInTfA7sejHYpEJL-4" vertex="1">
          <mxGeometry x="30" y="41.25" width="70" height="70" as="geometry" />
        </mxCell>
        <mxCell id="Lc69PInTfA7sejHYpEJL-7" value="Android" style="shape=image;verticalLabelPosition=bottom;labelBackgroundColor=default;verticalAlign=top;aspect=fixed;imageAspect=0;image=data:image/png,iVBORw0KGgoAAAANSUhEUgAAAgAAAAIACAYAAAD0eNT6AAAAAXNSR0IArs4c6QAAAERlWElmTU0AKgAAAAgAAYdpAAQAAAABAAAAGgAAAAAAA6ABAAMAAAABAAEAAKACAAQAAAABAAACAKADAAQAAAABAAACAAAAAAAL+LWFAABAAElEQVR4Ae3dC5xdVX3o8bX2mcmDJKBCAOPjYrU+oNaLQZFH5lEgMxMMqGROwkPQio/2Vq21ImgtEWvB2tZH772KD1CqQs4AAiGZmQCdRyJgTfDRErm+iorhrZIHJJk5e93/ngwlITM5Z8/stc9aa//O5zPJzDlrr/Vf3/+Zvf+zz35oxQMBBwWuHmibNSea+W6l9JuVMq+R/x/RWm2qmtInVrSu+bGDIRNSgQWu6V88Z/bs6H0mVsuVVkcIxVNaqdW6ZL607OT+ewtMw9QdFpD3KA8E3BKoDHfNV8bcLFGdMEFksVHmfctb+//PBK/xFAK5C1SGFr9EqWiDDLxggsF3KG2Wl1v610zwGk8h0FCBqKGjMzgCEwlMvvFPWkda6c+vGuxaOtGiPIdAngLfuLvrYHlL3ipjTrTxT0KZo4y++foNHcfkGRdjIVCPAAVAPUq0yU2gMtDRKYNN9Jf/3jFE8nHAlysDbXP3fpLvEchbYMZuc6mMeXSNcUtxVV9Wow0vI5C7AAVA7uQMeECBKDr9gK//94vmCK1nX/TfP/INAjkLjO36N+ov6hz2jXW2oxkCuQlQAORGzUB1CWiTHEBV18No88FrN5w22a7XuvqgEQJTFdAqukKWnVHn8jPYY1WnFM1yE6AAyI2ageoTMI/V126s1UFR3PR3KdrTFIFMBK5fv+R4o1Q5RWdbfzdv264U7WmKgHUBCgDrxAyQRsAonRz9X/dDG3PB9cOdf1z3AjREIAOBOI7/KU03xqi17z5u00iaZWiLgG0BCgDbwvSfSuD3Bz36b7LAL1IsFMl5gZ9O0Z6mCExLoGeo8y3SwUlpOtFafzlNe9oikIcABUAeyoxRt0DyV5I26uK6F9jTcPGq4c6OlMvQHIHUAlduXNgsu/4/lXLBteXW3qSw5YGAUwIUAE6lg2ASge62vh757+40GlI0fHqlWcn7OQ0abVMLPGf7/D+ThV6WYsFqVDKcrZICjKb5CbDCzM+akVIIaBV/MEXzpOmrXzX83belXIbmCNQt8O2BNz1Hrj/xt3UvIA21NldxKeA0YrTNU4ACIE9txqpboLt13Z2y+ryh7gWkoVbmE6s3Lj0ozTK0RaBegRG98yPS9tB620u77aZaSlUwpOibpghMW4ACYNqEdGBNII6TYwHSHDm94Knto39tLR46LqzAtQOdR0mF+b5UAEZ/uty+9qFUy9AYgRwFKAByxGaodALl9v6fyd/1/zfVUtp8qDKw5MhUy9AYgRoCTSX199JkZo1me7+8Zfbcpn/c+wm+R8A1AQoA1zJCPPsINI3s/oTcDvj3+zx54B/mqij++IGb8CoC9QtcN9j5OjmPf0X9S8g7VumPLT1u9ZNplqEtAnkLUADkLc54qQTecuodjxsVfTLVQkq9Q24pXOsGLSm7pHlRBSJtkr/k09w6/T9+3HL814rqxbz9EaAA8CdXhY103g71LzL5+1MAlJQxXBwoBRhNJxZYNdz1Jtn2t0z86sTPGq0+tFKvjCd+lWcRcEeAAsCdXBDJJAJLlvTukl2wyRHYaR5LKkNdf5JmAdoisLfAwEBbk1xqOu1Ff9Ytb+nr37sfvkfAVQEKAFczQ1z7CJRb+66TJ763z5M1fzD/KIVDml23NXukQXEEHi3NfI/M9uUpZhxH8td/ivY0RaChAhQADeVn8HoF5AIscvdfk/biQMdeP9z11nrHoB0CTwt84+6ug+Udd+nTP9fzv7xFv7aspe9H9bSlDQIuCFAAuJAFYqhLoLutf718tn9TXY3HGxll/q5yZ/fsNMvQFoEZu8wlonBYCoknR0vxx1K0pykCDRegAGh4CgggjUBcKn1Y2o+mWOZFenTbX6ZoT9OCC1Q2nPpiIUj3npEzBc4++bYtBadj+p4JUAB4lrCih7ti0dqfyIf6V6ZxkOMALpbTAuenWYa2xRXQo03JaaezUgg8pKq7OOskBRhN3RCgAHAjD0SRQsBonVzoZ2uKRQ42xqxM0Z6mBRWorF+8UE7jOzfd9PWl5fbB7emWoTUCjRegAGh8DoggpUC5pfdRWeTyNIvJXoN3VTZ0viLNMrQtoICJ0l30x6h71cNzv1pAKaYcgAAFQABJLOIUdsQ7PysXaPlVirk3qapKe053iu5p6rvAqsGupXIN37Y085C9BReVyz3VNMvQFgFXBCgAXMkEcaQSeHv74E45L/CjqRZS6sxVQ0tSXdUtZf8091Rg7KI/2vxDyvDvWN7atzblMjRHwBkBCgBnUkEgaQXKi/q+Kcvck2Y5rWIuDpQGrCBtH9Wz3ylTfWWK6cYqjrj1dAowmronwFXS3MsJEaUQWDXY0a61/rcUi8ilBNQ5y9v6rk2zjG9tKwNtc6vNzQc3j+iDVVPTIXF19GATyfcmOkSuVnewidXBWpt5cp2EXdrIAZVaPxHL/zoyW1VVPxGV1NaRqtoaN5WeaH7woK0h7+a+ecMZ83ZVd8utp9Xh9eZZ3K5Z3tp/Qb3taYeAiwIUAC5mhZhSCVQGu1Yrbd5Y90Ja/XLudv2K5B4DdS/jSMMbhjueHyt9tIr10bE2x8jV5+ScddmwKyVf+hCl4uT/5Oes9+7tkD63ymfkUiyoJ+Rrq6w8Ho2V+bE8v9mYps1HxDt+2t4+mOYaDbJo4x89w12flLNE0txr4qlSrF9+VnvvA42PnggQmLpA09QXZUkE3BCIdXRRpKpdEk2proiM+h/b55r3SVtnz92u3PHGF6jS7qN1VDpGNupHGyMbfaWOrhr13LE5yp/te6r3vWt4Iy/t/fNYy6z+mSMdzZHunz/WoQy1Z7Sno6iqR6NZI5XBzp9I6bFZwrtXGmzWTWbz47Me+8m7j9s0klUgWfZzw0DXC6vGfCBNn7LH6TNs/NOI0dZVAWtrC1cnTFxhCvQMdX1BdssmN2+p82F+3zQy+rK3nHrH43UuYKXZjbefcujIjObjdKyOkY3r2EZeBkr+l7/mg3nIXgHzU9kpsVnpWAqDaHMUV3+4rH3dfY2e4aqhjq9rpc9PEccjM0szXnbmybdsS7EMTRFwUoACwMm0EFRagRu/s/jw0dEo+Rx3Xv3L6s+VW3vTXfK1/s4nbLnSrIxeOfjd18tn7Z2y+75T/mJ/nTTMenf9hGM7+OQDcjxGn4pMn95Vvb182u1P5Bnj9UNdx8pHGBtT+Rv95+W23i/kGSdjIWBLgALAliz95i5QGeqS0wLN36UYeETF5uhye39SOFh7VAaWHGmiuEN2iXfKXQ0Xy0DPszaYvx2Pyh6Qu+UOfFIQVPu6T153T3IHSJvTqQx13i79n5JijPvmxztf7eNxDinmSNMCCVAAFCjZoU917K5/I9tkV7N6Qf1z1TfIXoBl9bev3fLKjQubn/vk4SfK6QbyF/7YX/mvkaX4XatNt3eLR+U4gn45O6FPLrazbvzqj3u/Pq3vVw11LpGErEnZyZnl1r5bUi5DcwScFWCl5GxqCGwqApXhzrfJ341Xp1lWrg1wUnfrujvTLPPsttcOLX5RSZW6lIm7ZKP1J/J6ciQ+j2wEkj0Bm+SfvqQg+PGi4+9aqVfGU+26UukuqSO2/UiWT461qPcxJBv/tnob0w4BHwQoAHzIEjHWLZB8xn700N33yN/byV/d9T7ulpX7CfU2frrd+F/6Z0rB8S75S/9UeZ7fp6dxrP6vf2V0/JU4ir86lVvwykdFSb7S3FHSqCh+XXnRuk1Wp0XnCOQswAorZ3CGsy+waqDjVB3p29KMJLuby91tfT31LHPD+tP/oBpX5cpx+u2yITminmVoY0WgKh+zrNYq+tK9rcf317NXILlAkopmyzEf9edN9jx8Uy75e56VGdApAg0UoABoID5D2xOoDHXINdp1cm2A+h5a/VwdOu/o8jE9uydaILlW/COlmWdqo+WvR3WafPG7MxFU4567X1LylZKOrzqrpf/BycLoGey6TO4h8bHJXp/g+Z2qNPqK8sm3/2qC13gKAa8FWIl5nT6Cn0zguoHFfxRF0Q/k9fouDiQN5QIvH+hu6ZW7DD7zqAwtfonWpQvlSnF/Ks8e+cwrfOeowKjEdYuc23/lspbe2/Y+k+DaDactKFVLyUGiB9Ubu5yI8Knu1v6L621POwR8EqAA8ClbxJpKYNVg55dlA3BhioV+OxKVXrZgdMe2x6JZZ8iu3+Sv/cXyxe9JCkSHmv6X5P/LI7tHrjrn1DseXjXcdZU25u0p4ntM7R59Wd7XJ0gRH00RmJYAK7Zp8bGwywLJ+fdy8JZ83iuXsK33odUGOajvpdJ8zyVv612Odi4LjEhwffJ1unzVfdEl+bjnfd1tvf/i8sSIDYHpCNT9yzCdQVgWgUYIlNvXPiQV7qdTjW3UydKejX8qNOcbN0uES+UrxfpO//S3cx/5ovMzI0AEpiGQ4hdiGqOwKAINEnhqZ/yPMvSkB4U1KCyGdV3AmA+7egMj1+mIzx8BCgB/ckWkUxA4v2NdchvbNEd9T2EUFglKQD4GKrf1fTuoOTEZBCYQoACYAIWnwhLY3PKGq2VG/xHWrJiNJQE59tN80FLfdIuAUwIUAE6lg2BsCCQXiJFjAfpt9E2fgQlo9Qu1q/r/ApsV00FgQgHOApiQhSdDEUjO45djv5Lbt3aEMifmYV3gQblY0HuXt/TfYH0kBkCggQIUAA3EZ2h7AskNX/QRW//SKH2ZjFL3hV/sRUTPHgrcrEab/lf5lFt/42HshIxATQEKgJpENPBN4PqhrmPlVnFfls9yF/oWO/E6J7BV7hNxybLWvi/sfVVB56IkIASmIEABMAU0FnFToHJn92y1e9vH5bp9H5AIm9yMkqg8FbhTrhX9znJL72ZP4ydsBPYToADYj4QnfBQYvwPglRL7H/gYPzF7IbBbaXOFOvTgT0520ygvZkGQCIwLUADwVvBa4MbbTzl0pLnpn+XmL+d7PRGC90ngPhWrd5bb+zb4FDSxIvBsAQqAZ4vwszcCPUNd5xplPiMBz/cmaAINRcDIBQO+pHePfpibBYWS0uLNgwKgeDn3fsY3fmfx4aPV6Oty055O7yfDBHwX2KJi845ye39ysyEeCHglwIWAvEoXwVaGO14/OhptYuPPe8ERgQUq0msqQ10flV0C/EHlSFIIoz4B3rD1OdHKAYGe4Y4LjdH/W0KZ6UA4hIDAvgLG3DSzaeb5Z558y7Z9X+AnBNwUoABwMy9EtZdA5d7uGeqxbf8iT71rr6f5FgEXBe6L4vjNy9rX3edicMSEwN4CFAB7a/C9cwKVO974AtU0Ipdk1cc7FxwBITCxwDb5iOoC7ig4MQ7PuiNAAeBOLojkWQI9gx2LjI565Ip+RzzrJX5EwHWB5K6Cf7+55YS/TW5G5XqwxFdMAQqAYubd+Vn3DHa9V27I8s8SKFf0cz5bBDipgFZ9I7p0zrmL1vxu0ja8gECDBCgAGgTPsBMLjF3Od3TblbIL9a0Tt+BZBLwT+EWk1ZuXtfT9yLvICThoAQqAoNPr1+SuHeg8qhSpGyXqY/2KnGgRqCnwpJwmeOHytr5ra7akAQI5CVAA5ATNMAcWkPOo/0Q+M61Iq0MP3JJXEfBYQKt/3rzoDR/iuACPcxhQ6BQAASXT16nIxX1OV0bLkf6c3+9rDom7fgFZ6X793pY3/ClFQP1mtLQjQAFgx5Ve6xSoDHWeIU3lSH81o85FaIaA9wJyisA39cPzLiiXe6reT4YJeCtAAeBt6vwPvGeo8y2yIrxOZtLs/2yYAQJpBcyq+fGu89rbB0fTLkl7BLIQ4F4AWSjSR2qBVUMdZdn4r5IF2fin1mOBMAT08kej2ddduXEhvwNhJNS7WbAHwLuU+R/wqsHOs7VW/yozKfk/G2aAwDQF5B4Cav7By8vH9OyeZk8sjkAqAQqAVFw0nq5AZbDjrUrrq6UfNv7TxWT5cASMvnXuk2rZkiW9u8KZFDNxXYACwPUMBRSfXNr37Ubrr8iU+OgpoLwylYwE5KqBO6o73/z29sGdGfVINwgcUIAC4IA8vJiVwKrBrndqba6U/njPZYVKPwEK6NtU89wzyyf2PBXg5JiSYwL8JeZYQkIMpzLY9Wds/EPMLHPKXsCcpka23bp649KDsu+bHhHYV4C/xvb14KeMBcZv6vP5jLulOwQCFzDDKt51erl9cHvgE2V6DRRgD0AD8UMfetVQ5wVyRz82/qEnmvlZENAtKpp9Y6XSzcGyFnTpco8ABQDvBCsClcHOE2T3UvKZPw8EEJiSgDlNH7EtuSU2DwSsCPARgBXWYnd6w0DXC6uR+Z4oHFlsCWaPwPQF5PiZd3a39Cdnz/BAIFMBCoBMOemscmf3bDmIaYNIvBYNBBDIRGC3itUp5fa+5PeKBwKZCfARQGaUdDQmMLI1ucgPG3/eDghkJzBDrpxx4w13LPkf2XVJTwhwQRbeAxkKyM19/kZO81+eYZd0hQACewTmV0vxzdf0L54DCAJZCbAHICvJgvezarjrTXJzn8sKzsD0EbAnoNVrZs2KrjGGi2nZQy5Wz5xiUqx8W5ltZWjJq7Uya6TzmVYGoFMEEHha4FWbf/VS3XP1zweffoL/EZiqAAcBTlWO5cYEvjWw9LCmaCQ54v8oT0geVcps1CbaaFT8Ux1FrzTGHCexL5SvQz2ZA2FOXUDuuKf/w8h7QBm9Sd4Ls3WkjlNj7wH9CunWh72icnkNtby7ra9n6gwsiQDXZec9MA2B5D7mz91x2O3yNmqZRjd5LDqitLm8NFK66qxT1v5ysgErQ4tfYkwk9yxQF0kb9o5NBuXn899RRn1IzZ+3abLb7lYG2uaq0sxWeT9/Ttq+1PFpPhkpffKy1t7vOx4n4TkswB4Ah5PjemiVoc7kQj/vcjzOH6k4uqDcvvYH9cZ5/cCS4+Io/rq0P7reZWjnrMBO+Xjqb+5tOeEzK/XKuJ4okwPtZs+KPiXHtPy5tHd5Hfnr0ZGR151z6h0P1zMv2iDwbAGX39zPjpWfHRJYNdzxHm30FxwKab9QZAX+d7+f8+hl7z5u08h+L9Z4Yu3arpnb5qrLtDHJ3gAefgp8P4rjc5a1r7tvKuFXhrr+RD4i+FdZdsFUls9pme/Mj3e2tbcPjuY0HsMEJEABEFAy85rKdXd0vTRqMj+S8Vy+Y9lXy619F07XpGew81+NVudNtx+Wz1vA/F6NNv9R+ZRbfzOdkVcNLWnRKh6UPpxdV8pHVh/pbum7fDrzZNliCvhwwEsxM+PorJNTkKKm+CoJz+WN/693z9R/lQXh7lLpfdLPliz6oo8cBYx633Q3/km0y1vXDsuW/19yjDz1UPI7eWlluIuPq1LLsQAFAO+BVAI96zv+l+sH/WmlLzzvDb1bU01sksbnLlrzO/ko4Z2TvMzTbgrcXG7rT3bdZ/KYNaf5EunoZ5l0ZqeTmXIWw9XcOdAObsi9UgCEnN2M55YcJS+nTl2RcbeZdie7Q6/tbu1dl2Wny1v71soOYE65yhLVXl875cC4d2fZ/dLjVj8pRaUUvk4/Xq8P3/pBpyMkOOcEKACcS4mbAe25+lj0VYlujpsR7okqNqrfRnwm1rfZ6Jc+sxYwP7RxVLw5bO6gRLor62iz7M9o/fHrBxa/Mss+6StsAQqAsPOb2ex6hrreI521Z9ahpY601t+z0XVJq402+qXPjAW0uifjHse6G792QHLgq8uPWXEUXbXSrGS97nKWHIqNN4pDyXA1lLG7kGnzD67Gt1dc2zcvOn5Kp3zt1ceE3z4+55H/lBec/gtwwsCL9uTY1f0sTVrL1QPdf5xwzPBdH3A/TCJ0QYACwIUsOB5DtTn+ioQ41/Ewk/C+X+/FXtLOZfxaAq7/BZh2WsG1l6vjWdkDkEDJVSJ9KADkIob6E9etX/Ly4JLLhDIXoADInDSsDuViKO+SNcqpXszK6CesxqmV3f6tBl+MzuXeDvZypGN7fWebntlyASQ+CsjWNMjeKACCTGs2k7p2aPGL5O+ef8ymtxx60ea1Vkcxym7/VoMvRuejZvRYWzONVORT/k86Zv13k2tY8EBgUgEKgElpeKGkoi+LwjyPJBbcMNzxfBvxjp0CqdTzbPRNn9kJ2NxIj981MrtgLfck8X4yuWqn5WHo3mMBCgCPk2czdLnRzzuk/w6bY9joezSOklv7Zv6Q2wdb6TfzQAveodzm1+Zf6ckto316HJRctXPPKbw+hU2seQlQAOQl7dE4N284I/mr/1MehfzfoWodH//fP2T4Tay1lX4zDJGuEgGjFto4Da4y0PEy6f1Q/5B1S89wx9n+xU3EeQhQAOSh7NkYu0ZHPiAhe7iyS6D1X9ww0PXCLMmvHeg8Sm4pm+nV5bKMj772EZh/9Pq7s78iXhQ5fQXMfQT2+yFaOTDQ1rTf0zxReAEKgMK/BfYFqNzZ8TylTfYr0H2HsfnTIdXIJKctZvJIdp+WSupq6cyH0yAzmbP3nRj1iesGFv9RVvPoGe5cIbsWzsqqv/z7MX/4aDTrgvzHZUTXBSgAXM9Q3vGN6A/JkAfnPWzG43WsGuzK5AY+1w91/YXsVm7LOD66syswM4qia67cuLB5usNUBpYcKUXg/5luP41fXv9t5d7uGY2PgwhcEqAAcCkbDY7lW7efcoSEEMSpQ1qbf6oMd7x+OqSrhrtOMtp4vOt3OrP3ftljn7dj/mems+v7G3d3Hawic41IBHD2h3mxenzru7zPKhPIVEBudc0DgT0CctGfz8quzvcH5FGV+VzxuzmPfXz8Sn51TW3t2q6Z2+aqy7Qxfy0LUCTXpeZso+/JRXHOX9a+LtUlolcNdrRrHX1N3j8vdnZm6QN7UDXPe2n5xJ6n0i/KEiEKUACEmNUpzCk5cE4+O0/ueT5zCou7vYhRP4xL5oIVi/p/WCvQyvrFC1U1+rrc/veYWm153RuBnXKTqEuWLer9nNwu2hwo6sqd3bP1yLYrpNF7pV1460etLiq39H36QAa8VhyB8N7gxcldpjOV8/6vlA5D3kU4In/N3SPH9G2SN/09Ko42KfXkz1TTjFeYaum1cuDjQnk+OYc8uZIcR0xn+u5ypDOtfimR/LuUAPdouWfASNx0j452zW7S+rXyflgoH/ck+U8+NprvSMQ2wnh8ZmnGS848+ZZtNjqnT78EKAD8ypeVaJOrhUVNJtlFyobPijCdIuCQgNGXltt6L3MoIkJpkACfbzYI3qVho2ZzqcTDxt+lpBALArYEtPmrsdN9bfVPv94IUAB4kyo7gVaGu46WXaLn2umdXhFAwEGBQ9Se030dDI2Q8hSgAMhT28WxYvNxCYv3gYu5ISYE7Am8d/y0X3sj0LPzAqz4nU+RvQDlIjfHynHOHl/hzJ4NPSMQuMCcpuYZlwQ+R6ZXQ4ACoAZQyC/HSn1U5seBoCEnmbkhMKmAec+3BpYeNunLvBC8AAVA8CmeeII3fmfx4XJa3BkTv8qzCCBQAIGZpdLIWwswT6Y4iQAFwCQwoT89Mlo6X+Y47Wulh+7E/BAIWUDH6h0hz4+5HViAAuDAPsG+KhdE4xc/2OwyMQTqFJArXl6/fsnxdbamWWACFACBJbSe6SQ3uZF2r6ynLW0QQCBsgWo1vjDsGTK7yQQoACaTCft5/voPO7/MDoG6BeT+CMuv6V88p+4FaBiMAAVAMKmsbyI3bzhjntzlrlxfa1ohgEABBObNnqlZJxQg0c+eIgXAs0UC/3nn6MgKmSLVfuB5ZnoIpBEwWvMxQBqwQNpSAASSyHqnoXXM7v96sWiHQHEETrx+YDHHBRUn32MzpQAoUMKv39Ah97jXHPFboJwzVQTqFTBRxB8H9WIF0o4CIJBE1jONalWxm68eKNogUEABo9T5V25cyLVBCpR7CoCCJLtyb/cMrfR5BZku00QAgfQChz9vx/yl6RdjCV8FKAB8zVzKuPWj286URbjud0o3miNQJAHZC8DHAAVKOAVAQZJtNLv/C5JqponAdAQ6bhjoeuF0OmBZfwQoAPzJ1ZQjrQwsOVIWPnXKHbAgAggURaAU6/icoky26POkACjAO8CU4mTjT64LkGumiMB0BeSaAB3T7YPl/RBgo+BHnqYXpTGnTa8DlkYAgQIJnFS5s3t2geZb2KlSABQg9XL0P7v/C5BnpohARgIzzei2loz6ohuHBSgAHE5OFqFdN3T6q6SfBVn0RR8IIFAQAaPZa1iAVFMABJ5kbar8IgeeY6aHQNYCWvGxYdamLvZHAeBiVjKMSW71ye7/DD3pCoGCCLz6W7efckRB5lrYaVIABJz6gYG2JpleW8BTZGoIIGBHQDc1N51ip2t6dUWAAsCVTFiI45HS7OTGP/MsdE2XCCAQugDHAYSeYc4NDznDkTHs/g85wcwNAZsCWnH8kE1fB/pmD4ADSbAVglz+lwLAFi79IhC+wAvGzyIKf6YFnSEFQKCJv3nDGfOUUW8IdHpMCwEEchDgLKIckBs4BAVAA/FtDr3b7GyV/pODAHkggAACUxKQi4jxMcCU5PxYiALAjzyljtLEJXb/p1ZjAQQQ2EdAm9YrNy5s3uc5fghGgAIgmFQ+eyJcyOPZIvyMAAKpBeY9d9v85GwiHgEKUAAEmNSrB9pmybSODnBqTAkBBHIW0CV9XM5DMlxOAhQAOUHnOcwsNevIPMdjLAQQCFjAxKxPAk0vBUCAiS2p6DkBTospIYBAAwRipVmfNMA9jyEpAPJQznmMphmjW3IekuEQQCBQAW0065NAc0sBEGBi33LSukdkWtsCnBpTQgCBvAV0/LO8h2S8fAQoAPJxzn0UrdQ1uQ/KgAggEJrAb2eWZq4ObVLMZ48ABUCg74Qo1lfI1HYHOj2mhQACOQgYY/7pzJNvYW9iDtaNGIICoBHqOYx5VnvvA0qbr+YwFEMggECYAo9rs+vzYU6NWSUCFAABvw+qxlwu09sV8BSZGgIIWBLQxvxDuX1wu6Xu6dYBAQoAB5JgK4SzW9f9Wm4I1C79cxSvLWT6RSA8AbmRqFq5rLX/0+FNjRntLSB55hG6QGVgyZEqiq+XeZ4U+lyZHwIITEvgCR3F53UvWnfrtHphYS8E2APgRZqmF2S5fe1Dv5vzaLs26jPS047p9cbSCCAQpIBWG+Ioej0b/yCzO+Gk2AMwIUu4T67euPSgnU+OnCEfDSyUWb5Y9vUdLt/zPgg35cwMgckEdsjtfn+lVPyz6mh004pTen8+WUOeRwABBBBAAAEEEEAAAQQQQAABBBBAAAEEEEAAAQQQQAABBBBAAAEEEEAAAQQQQAABBBBAAAEEEEAAAQQQQAABBBBAAAEEEEAAAQQQQAABBBBAAAEEEEAAAQQQQAABBBBAAAEEEEAAAQQQQAABBBBAAAEEEEAAAQQQQAABBBBAAAEEEEAAAQQQQAABBBBAoIbASrMyqtGElxFAAAEEHBVgHX7gxBT+PvDfGlh6WEmPnKa1/gOl4xcoo1+gVPJl5EsdLl875Os3yZdR5jeRjh5QsfmNtL9rWWvv9+V55x/JL8Grhv/9ZJnfQmXUQkn6Qgn6KPkqfP6dTx4BImBfQFZt6pdGq42yRtikTLTpxy2v37BSr4ztDz39Ea4f6jrWGHOCivQLYhO/UI+tv1Wy/k6+5sjXI7Kqk3W4+Y3S8mWi30j7X1RN823ntK9+bPoR+NtDITcA161f8nIdmzO0NmfKG/9ESd9U/9L/tQDeIm+uW8xhcwfLx/Tsdu2tcN0dXS+Nms3XZJ4nuxYb8SCAgKMCWm2IR/TbVpzS+3PXIqzc2z1DP7a9TTboZxilzpD4XjTFGGMpeO40Rt9sIn3LikVrfzLFfrxdrDAFwDX9i+fMnKnfL3+5v1Wy9UoLGduqtVpjTHR5uXXtf1joP1WXxih9/VDnn0lV/w+yYFIF80AAAQTSCOzQRl20rLXvC7Juk21tYx+VoSWv1jq+RNZtp0skB1uI5j7ZM/Cvu3aZz53fsS7Z8xv8I/gCoFLpLqkjtr9DqsWPSzaPzCGjsfyqXFMy+mNntfc+kMN4Ew7RM9z1SXkzf2TCF3kSAQQQqFNA/mj6++6W3o/W2TzzZjcMdL2wqs0n5K/186Xzqe6tTRPXQ7JX91L18Nyvlss91TQL+tY26AKgZ7jjTNm9c4UkxcZf/LVyvVOK5s+Z3dXLy6fd/kStxlm+ft1g5+sire6SPktZ9ktfCCBQSIFqbNQJK9r6vpfn7Cu3nXqInlG6RHZmvl/GnZXn2ONj3ScfE1/c3dJ/cwPGzmXIIAuA5MC+pmjkOhE8JRfFAw/yuI7it3UvWnfrgZtl8+rVA22z5kQz75EK9lXZ9EgvCCCAgPnxjnjXa9/ePrgzD4ue9YvfaOLoazLWoXmMV2OMO0bj5hUhHjCYx+6UGrbZvpx8TiQb/6RSdWHjn0zuUHkj37xqqOvD2c504t4OimZLtczGf2IdnkUAgakJ6FftWbdMbek0SyXrymSdKcu4sPFPQj8l2aYk25Y08/ChbVAFwKrhrjcpFd8p8Ec5hi975M0Vq4Y6v5H8hW4zNq3iVpv90zcCCBRTwPa6JVk3JuvIZF0pwq5tm45Kti17tjHh5N815CnL9gx1/o025kbpYO6UO7G8oHzecu6caNbQtRtOW2BvKJ2c488DAQQQyFjA3rolWScm68ZkHZlx0Fl2NzfZxiTbmiw7bWRfQRwDUBnu+LhcwOdvGwmZcuyfNMezjn9z+02/T7ncAZuPHS0bmV8fsBEvIoAAAlMUKMX6RVmf3fTtgTc9ZyTa+V0J6eVTDCv/xbS5rNzSf2n+A2c7ovd7AHoGO7tl4/+xbFms9/ZyecNfN3aKYoZDxVoF9xlVhjx0hQAC0xTIeh2TrAOTdaGE5c/GPzGUbc7Ytmeano1e3OsCYOwSkFp9TRB93JPRoQ/f9uks3wBxpGZm2R99IYAAAnsLZL2OGV8Hduw9hiffa7nI2teSbZAn8U4YprcFwLduP+UIueJOcqToQRPOzIMn5Q30gZ7Bjrd7ECohIoAAApkKJOu+ZB2Yaaf5dnZQsg1KtkX5DpvdaF4WAMnNbZqam28QhqleAzo7wWn2ZLT+YnLhnml2w+IIIICANwLJOi9Z93kT8OSBvijZFvl610EvC4Bjhr97nuTjpMlz4tUrM+Qcwc96FTHBIoAAAtMQGF/nzZhGFy4tetL4NsmlmOqKxbsCIDlXVO5K8Ym6ZudPoxMrg51v9idcIkUAAQSmJjC+rjtxaku7uVSyTbJ9jRcbM/euAJhTmvVeOQTzxTYwGtzn5QMDbU0NjoHhEUAAAWsC4+u4y60N0LCOzYv3bJsaFsCUBvaqAPjm+tOfq0K9w51Wr3ikNPPCKWWRhRBAAAEPBMbWcbKu8yDU9CHKtmlsG5V+yYYt4VUBMCOuyu1t9XMapmV5YG2ildf0L55jeRi6RwABBHIXSNZtyTou94FzG1A/Z882KrcBpz2QNwVAcpSlfM7ytmnP2OkOzBEzZ+nTnQ6R4BBAAIEpCOxZtxlvT5mrZ8rJNsqnMwK8KQCOGborOer/sHqS4HMbraIzfY6f2BFAAIGJBAqybjtsfFs1EYFzz3lTACitz3BOz0pA8RIOBrQCS6cIINAggT3rtHhJg4bPd1iPtlXeFABG6YL8Zayf82g0uyXfdyyjIYAAAvYE9qzTwj1+a285n7ZVXhQA1w2d/io59e8P90YO+Xu5H3ZBip2Qs8jcEEDgaYFirdPMH+7ZZj09e3f/96IA0Cou1IFxcn3sQs3X3V8PIkMAgSwEirZO82Wb5UUBIEG+NIs3oTd9GHWUT0eSeuNKoAggkLvA2LpM1mm5D9zAAX3ZZnlRABhlFjQwl40YuvTq9XcFfbpMI1AZEwEE8hcYX5eV8h+5cSP6ss3yogCQND6/calszMgjBZxzY6QZFQEEbAoUdF3mxTbLlwKgaHsAVEkXbq+HzXUQfSOAQIMECrou82Kb5XwBMP5ZeOF2h5u45MUbqEHrFIZFAAFPBAq6LjvCh+O4nC8AXn7H+vnyPi/cXfLktBkvdiF5sg4iTAQQaJBAQddlTePbrgap1zes8wWALjXPrm8qobUyBZ13aHlkPggUXaCY6zIftl3OFwBF/9Vh/ggggAACCNgQoACwoUqfCCCAAAIIOC5AAeB4gggPAQQQQAABGwIUADZU6RMBBBBAAAHHBSgAHE8Q4SGAAAIIIGBDgALAhip9IoAAAggg4LgABYDjCSI8BBBAAAEEbAhQANhQpU8EEEAAAQQcF6AAcDxBhIcAAggggIANAQoAG6r0iQACCCCAgOMCFACOJ4jwEEAAAQQQsCFAAWBDlT4RQAABBBBwXIACwPEEER4CCCCAAAI2BCgAbKjSJwIIIIAAAo4LUAA4niDCQwABBBBAwIYABYANVfpEAAEEEEDAcQEKAMcTRHgIIIAAAgjYEKAAsKFKnwgggAACCDguQAHgeIIIDwEEEEAAARsCFAA2VOkTAQQQQAABxwUoABxPEOEhgAACCCBgQ4ACwIYqfSKAAAIIIOC4AAWA4wkiPAQQQAABBGwIUADYUKVPBBBAAAEEHBegAHA8QYSHAAIIIICADQEKABuq9IkAAggggIDjAhQAjieI8BBAAAEEELAhQAFgQ5U+EUAAAQQQcFyAAsDxBBEeAggggAACNgQoAGyo0icCCCCAAAKOC1AAOJ4gwkMAAQQQQMCGAAWADVX6RAABBBBAwHEBCgDHE0R4CCCAAAII2BCgALChSp8IIIAAAgg4LkAB4HiCCA8BBBBAAAEbAhQANlTpEwEEEEAAAccFKAAcTxDhIYAAAgggYEOAAsCGKn0igAACCCDguAAFgOMJIjwEEEAAAQRsCFAA2FClTwQQQAABBBwXoABwPEGEhwACCCCAgA0BCgAbqvSJAAIIIICA4wIUAI4niPAQQAABBBCwIUABYEOVPhFAAAEEEHBcgALA8QQRHgIIIIAAAjYEKABsqNInAggggAACjgtQADieIMJDAAEEEEDAhgAFgA1V+kQAAQQQQMBxAQoAxxNEeAgggAACCNgQoACwoUqfCCCAAAIIOC5AAeB4gggPAQQQQAABGwIUADZU6RMBBBBAAAHHBSgAHE8Q4SGAAAIIIGBDgALAhip9IoAAAggg4LgABYDjCSI8BBBAAAEEbAhQANhQpU8EEEAAAQQcF6AAcDxBhIcAAggggIANAQoAG6r0iQACCCCAgOMCFACOJ4jwEEAAAQQQsCFAAWBDlT4RQAABBBBwXIACwPEEER4CCCCAAAI2BCgAbKjSJwIIIIAAAo4LUAA4niDCQwABBBBAwIYABYANVfpEAAEEEEDAcQEKAMcTRHgIIIAAAgjYEKAAsKFKnwgggAACCDguQAHgeIIIDwEEEEAAARsCFAA2VOkTAQQQQAABxwUoABxPEOEhgAACCCBgQ4ACwIYqfSKAAAIIIOC4AAWA4wkiPAQQQAABBGwIUADYUKVPBBBAAAEEHBegAHA8QYSHAAIIIICADQEKABuq9IkAAggggIDjAhQAjieI8BBAAAEEELAhQAFgQ5U+EUAAAQQQcFyAAsDxBBEeAggggAACNgQoAGyo0icCCCCAAAKOC1AAOJ4gwkMAAQQQQMCGAAWADVX6RAABBBBAwHEBCgDHE0R4CCCAAAII2BCgALChSp8IIIAAAgg4LkAB4HiCCA8BBBBAAAEbAhQANlTpEwEEEEAAAccFKAAcTxDhIYAAAgggYEOAAsCGKn0igAACCCDguAAFgOMJIjwEEEAAAQRsCFAA2FClTwQQQAABBBwXoABwPEGEhwACCCCAgA0BCgAbqvSJAAIIIICA4wIUAI4niPAQQAABBBCwIUABYEOVPhFAAAEEEHBcgALA8QQRHgIIIIAAAjYEKABsqNInAggggAACjgtQADieIMJDAAEEEEDAhgAFgA1V+kQAAQQQQMBxAQoAxxNEeAgggAACCNgQoACwoUqfCCCAAAIIOC5AAeB4gggPAQQQQAABGwIUADZU6RMBBBBAAAHHBSgAHE8Q4SGAAAIIIGBDgALAhip9IoAAAggg4LgABYDjCSI8BBBAAAEEbAhQANhQpU8EEEAAAQQcF6AAcDxBhIcAAggggIANAQoAG6r0iQACCCCAgOMCFACOJ4jwEEAAAQQQsCFAAWBDlT4RQAABBBBwXIACwPEEER4CCCCAAAI2BCgAbKjSJwIIIIAAAo4LUAA4niDCQwABBBBAwIYABYANVfpEAAEEEEDAcQEKAMcTRHgIIIAAAgjYEKAAsKFKnwgggAACCDguQAHgeIIIDwEEEEAAARsCFAA2VOkTAQQQQAABxwUoABxPEOEhgAACCCBgQ4ACwIYqfSKAAAIIIOC4AAWA4wkiPAQQQAABBGwIUADYUKVPBBBAAAEEHBegAHA8QYSHAAIIIICADQEKABuq9IkAAggggIDjAhQAjieI8BBAAAEEELAhQAFgQ5U+EUAAAQQQcFzA+QLAqObtjhtaCk8XdN6WOOkWAQQaJFDMdZkP2y7nC4Cz21Y/Lu/a3Q165zZsWKPUgw0bnIERQACBjAQKui7bPb7tykjRTjfOFwBaK3n/6IfsTN/dXrXRW9yNjsgQQACB+gSKuS7TD+3ZdtVn1KhWzhcAe2BM4TaG1VJcuDk36peAcRFAwJ5AMddlfmyzPCkAVOE2hpGJCjdne6sgekYAgUYJFHRd5sX624sCQBfv8/CR7kW9jzXqF5ZxEUAAgawExtdlI1n150M/vmyzvCgAjDb3+ZD0zGI06ic+fH6U2XzpCAEEghUYW5fJOi3YCU4wMV+2WV4UANWqvnUC43Cf0mp1uJNjZgggUDiBgq3TfNlmeVEAnN3ed7+cC/DDovzSxLG+uShzZZ4IIBC+QKHWabKtGttmeZBWLwqAxFErfYsHnhmEqB9e3tb73Qw6ogsEEEDACYE96zT9sBPBWA7Cp22VNwWAKVUL8VexMWY1n/9b/g2lewQQyFUgWacl67ZcB23QYD5tq7wpAMqL1m2SfD7QoJzmNmxUigtR6OQGykAIIOCEQEHWbQ+Mb6ucMK8VhDcFwJ6J6C/WmpDnr//it7Mf7/d8DoSPAAII7Ccwvm77xX4vBPWEX9sorwqA2XOaPiPvlWCvkS+7yT767uM2Fep82aB+95kMAghMKpCs25J13KQN/H/hwfFtlDcz8aoAWHrc6ieN0Zd6o5sqUL1p2aK+VakWoTECCCDgkcCedZxOPs4N7pFsm5JtlE8T86oASGD1I3Ovkv+CuzCQ1ubDHPzn068OsSKAQFqBZB2XrOvSLudB+/vGt00ehPpMiN4VAOVyT1XeQZc8M4Ugvuvvbum7I4iZMAkEEEDgAALj67qgjnVKtknJtukA03byJe8KgERxeUvvTfLfGidF0we1PValD6RfjCUQQAABPwXG13nb/Yx+v6jXjG+T9nvB9Se8LAAS1N0z9Tny32bXgWvEF8vr565oXfPjGu14GQEEEAhGYHydd65MKFkH+vzYPL4t8nIO3hYA572hd2s8qs8Q9ce9lJegjdIfKbf2FeQKh75mibgRQMCGQLLuS9aBNvrOqc/Hk21Qsi3KabzMh/G2AEgkVpzS+3Mdq2XyrXenzmmjvrG8tfdTmWeUDhFAAAFPBJJ1YLIu9CTcvcMcSbY9yTZo7yd9+97rAiDB7m7vG5R7L7/XM/i75jypL/QsZsJFAAEEMhcYXxfelXnHFjtMtjnJtsfiELl07X0BkCh1t/ZdKTdguEC+3ZWL2vQGWa3inYuXLOn1IdbpzZSlEUAAgRoCY+tCWSdKMx/uFbAr2dYk25wa0/Li5SAKgES6u7X3GvlQvV2uFODsHafkFNhPbW55w5vK7YOhHP3qxZucIBFAwG2BZJ2YrBuTdaS7kcq2RbYxY9sad4NMFVkwBUAy63Jb311VVX2dHF73g1QK9hvvMlq9tbu1/+KVeqXvR73a12IEBBAonECybkzWkcm6Uibv2B5S84Nk25JsY0JKTFAFQJKYs1vX/XrnTnOyUeqbjiTqv+JYty1v6fPxQBdHCAkDAQSKIpCsK5N1psz3v1yYc7ItSbYpybbFhXiyjCG4AiDBOb9j3Y7lrX3nyZvoBKXVhizBUvT1uNb6A+qwea9c0d57d4rlaIoAAggUWmBsnSnrzrF1aKNO9ZZtR7INSbYlyTYlxIQ0hTipp+c0vuFdVBnqlOsFmCvk+IBXPf2axf+fkr4/p3aPXtF92u1PWByHrhFAAIFgBcrH9OyWyX22ctupV6sZTRfL9++Xr9n2J2zkwmz64nJL+NdoCXIPwLPfIGMX23n44FfLRSfeIXsEBuV1G9dsvl/OZ/1MKdYvl/EuKbPxf3Ya+BkBBBBILZCsS5N1arJuTdax0sH9qTupvUA12TaMbSNkWzG2zai9jPct5HTG4j0qd3Y8z4zqJXIhhzMl6R0iMG8KCvLRkNoogLfIHa5uWdbS96Mp9JHpIquGu96kjfl2pp3SGQIIIDAuIDe9ebML172/frjzj41RZ8hKOLka7HHyNZVt2TY5qr/fROpm3WTWlk/s/23REj0VtKCMKvd2zzCPbj1JdoUcZXS0wCizQDaiC5TW8qWOkJtXbpOPD7bIG2WLjvQWo+IHtdFbRkvVu88++bYtLmFQALiUDWJBIDwBVwqAvWWv3XDagqZq6Q1Gy7pbRc83cbL+VgukJpD/zTxZd8vpe2aLxL5FzuHfok28RU7Ful/PP/g74x8z7N1dob4P+hiAejI5/gYYqKctbRBAAAEE3BIY/0PsRrei8iOaQhwD4EcqiBIBBBBAAIH8BCgA8rNmJAQQQAABBJwRoABwJhUEggACCCCAQH4CFAD5WTMSAggggAACzghQADiTCgJBAAEEEEAgPwEKgPysGQkBBBBAAAFnBCgAnEkFgSCAAAIIIJCfAAVAftaMhAACCCCAgDMCFADOpIJAEEAAAQQQyE+AAiA/a0ZCAAEEEEDAGQEKAGdSQSAIIIAAAgjkJ0ABkJ81IyGAAAIIIOCMAAWAM6kgEAQQQAABBPIToADIz5qREEAAAQQQcEaAAsCZVBAIAggggAAC+QlQAORnzUgIIIAAAgg4I0AB4EwqCAQBBBBAAIH8BCgA8rNmJAQQQAABBJwRoABwJhUEggACCCCAQH4CFAD5WTMSAggggAACzghQADiTCgJBAAEEEEAgPwEKgPysGQkBBBBAAAFnBCgAnEkFgSCAAAIIIJCfAAVAftaMhAACCCCAgDMCFADOpIJAEEAAAQQQyE+AAiA/a0ZCAAEEEEDAGQEKAGdSQSAIIIAAAgjkJ0ABkJ81IyGAAAIIIOCMAAWAM6kgEAQQQAABBPIToADIz5qREEAAAQQQcEaAAsCZVBAIAggggAAC+QlQAORnzUgIIIAAAgg4I0AB4EwqCAQBBBBAAIH8BCgA8rNmJAQQQAABBJwRoABwJhUEggACCCCAQH4CFAD5WTMSAggggAACzghQADiTCgJBAAEEEEAgPwEKgPysGQkBBBBAAAFnBCgAnEkFgSCAAAIIIJCfAAVAftaMhAACCCCAgDMCFADOpGL6gUTKbJt+L/SAAAIITCzAOmZiF1+fpQDwNXMTxF3aPfKDCZ7mKQQQQCATAdYxmTA60wkFgDOpmH4gbzn1jsell/un3xM9IIAAAvsJ3D++jtnvBZ7wU4ACwM+8HSBqvekAL/ISAgggMEUB1i1ThHN2MQoAZ1MztcC0iddMbUmWQgABBCYXYN0yuY2vr2hfAyfuiQWMUbpnfec6ZdSpE7fgWQQQQCClgFa3dy/qW6y1rFl4BCPAHoBgUrlnIskvaNXEfyo/PRHY1JgOAgg0RuCJZJ3Cxr8x+DZHpQCwqdugvs9uXfdrpcyfy/DVBoXAsAggEIaArEPMn+9Zp4QxIWbxjAAfATxjEdx3leGO1yujvy4Te2Vwk2NCCCBgW+A+pc0F5Zb+f7c9EP03RoA9AI1xz2XU5Bd3R7zzWG3UZ2RA9gbkos4gCHgvUE3WGcm6g42/97k84ATYA3BAnnBeXL1x6UFPbR95jYrMQhXrhSpSR8nhPD7m/2WSlReEk5l6Z2K+q5TeWW/rBrf7nzL+IQ2OIe/hR2TAO/MeNJPx5Lgh2eD/Uv7ZKOuGTbPnNv9w6XGrn8ykbzpxWsDHDYDToARnV6Ay1PVZ+Uzy/XZHca/3aqxecnZ73/3uRbZ/RJWhzkF5tnX/V0J+Rj9cbu09MuQZMrfwBPgIILycMiMEEEAAAQRqClAA1CSiAQIIIIAAAuEJUACEl1NmhAACCCCAQE0BCoCaRDRAAAEEEEAgPAEKgPByyowQQAABBBCoKUABUJOIBggggAACCIQnQAEQXk6ZEQIIIIAAAjUFKABqEtEAAQQQQACB8AQoAMLLKTNCAAEEEECgpgAFQE0iGiCAAAIIIBCeAAVAeDllRggggAACCNQUoACoSUQDBBBAAAEEwhOgAAgvp8wIAQQQQACBmgIUADWJaIAAAggggEB4AhQA4eWUGSGAAAIIIFBTgAKgJhENEEAAAQQQCE+AAiC8nDIjBBBAAAEEagpQANQkogECCCCAAALhCVAAhJdTZoQAAggggEBNAQqAmkQ0QAABBBBAIDwBCoDwcsqMEEAAAQQQqClAAVCTiAYIIIAAAgiEJ0ABEF5OmRECCCCAAAI1BSgAahLRAAEEEEAAgfAEKADCyykzQgABBBBAoKYABUBNIhoggAACCCAQngAFQHg5ZUYIIIAAAgjUFKAAqElEAwQQQAABBMIToAAIL6fMCAEEEEAAgZoCFAA1iWiAAAIIIIBAeAIUAOHllBkhgAACCCBQU4ACoCYRDRBAAAEEEAhPgAIgvJwyIwQQQAABBGoKUADUJKIBAggggAAC4QlQAISXU2aEAAIIIIBATQEKgJpENEAAAQQQQCA8AQqA8HLKjBBAAAEEEKgpQAFQk4gGCCCAAAIIhCdAARBeTpkRAggggAACNQUoAGoS0QABBBBAAIHwBCgAwsspM0IAAQQQQKCmAAVATSIaIIAAAgggEJ4ABUB4OWVGCCCAAAII1BSgAKhJRAMEEEAAAQTCE6AACC+nzAgBBBBAAIGaAhQANYlogAACCCCAQHgCFADh5ZQZIYAAAgggUFOAAqAmEQ0QQAABBBAIT4ACILycMiMEEEAAAQRqClAA1CSiAQIIIIAAAuEJUACEl1NmhAACCCCAQE0BCoCaRDRAAAEEEEAgPAEKgPByyowQQAABBBCoKUABUJOIBggggAACCIQnQAEQXk6ZEQIIIIAAAjUFKABqEtEAAQQQQACB8AQoAMLLKTNCAAEEEECgpgAFQE0iGiCAAAIIIBCeAAVAeDllRggggAACCNQUoACoSUQDBBBAAAEEwhOgAAgvp8wIAQQQQACBmgIUADWJaIAAAggggEB4AhQA4eWUGSGAAAIIIFBTgAKgJhENEEAAAQQQCE+AAiC8nDIjBBBAAAEEagpQANQkogECCCCAAALhCVAAhJdTZoQAAggggEBNAQqAmkQ0QAABBBBAIDwBCoDwcsqMEEAAAQQQqClAAVCTiAYIIIAAAgiEJ0ABEF5OmRECCCCAAAI1BSgAahLRAAEEEEAAgfAEKADCy2nQMzLGPBn0BCeZ3MwZsUfzLmKOijjnSd6sPO2NAAWAN6ki0EQgUvrBAkqM/ujEEx/zZd5aqSLmqIhz9uUtSZyTCFAATALD024KxFG8xc3IrEb10Eq9MrY6Qoadx0oXL0dGFW/OGb5n6KoxAhQAjXFn1CkK6LiAGxfl18ZFm+LlSGu/cjTFXz8WC0yAAiCwhIY+naph97LrOTZR8XJkivmxh+tvReKrIUABUAOIl90SOOSpAh4DoI1Xu5e1Kt7HNLqIH3u4tWogmikIUABMAY1FGiewZEnvLhn9142LoAEjx/pnDRh1ykOOVmf8QhaWP4qL9Kh6laMirVqJrgAABgFJREFUZYa5Ti5AATC5Da84KiBbltWOhmYlrEhXvZrvOe2rkzMWvmsFw81OHzMPH1Kk+bqZBaJKLUABkJqMBRotoE18U6NjyHH8zctab/tpjuNlNdTNWXXkej9y2uOacrmn6nqcxIfAswUoAJ4tws/OC/xu7uODsof5984HmkGAWmsvi51YlQpTABijCjPXDN7SdOGQAAWAQ8kglPoE3n3cphGj9Jr6WvvdSlf1t32cwYrWNT9WSvu45yIt986du+J1aReiPQIuCFAAuJAFYkgt4Otfxikn+sBZbWs3pVzGmeZamfD/Mjb69vM71u1wBp1AEEghQAGQAoumDgk0zU32AHh1elxaPfls+StygRlvj6Y3Wl8tcw76s3EdxV9Jm1faI+CKAAWAK5kgjlQC5RN7njJGr0y1kF+NHzHxzn/yK+R9oy239G6W+uXr+z4b1E93drf0h7+XI6iUMZm9BSgA9tbge68E9CNzr5KA7/Mq6DqDNcpcVm4f3F5nc2ebRXF0qQT3lLMBTiMw2cNx0TQWZ1EEGi5AAdDwFBDAVAWSU69kJXzJVJd3eLmf/X7OY19yOL66QzurvfcB2Qvw+boX8Kfhzctber/jT7hEisD+AhQA+5vwjEcCshJOTpO706OQa4aqjfpIcqZDzYaeNGiKZ18hof7Wk3DrCbMqpzmGWHjWM3faBCRAARBQMos6ldiov5S57w5k/v/W3dbXE8hcxqbx5vab5JoN4eypkQLt83tOcwwpS8yliAIUAEXMemBzXtHW9z1tzHsCmNZ/NY2MlAOYx35TKLf2fklumPPF/V7w7Qmtbj/M7OSzf9/yRrwTClAATMjCk74JdLf1Xy0Hzn3Wt7j3ind7HMdnvOXUOx7f67mgvj0sfuq9MqEBfyelfzqiS+X29sFRf+dA5Ag8I0AB8IwF33kuoB8++K9lCj5elS051//cFe3r/tPzFBww/LENZ7NZprT6+QEbOvmiXHq6ZJaeu2jN75wMj6AQmIIABcAU0FjETYHkrIDmeNZyie4nbkY4cVTGmL8pt/bdMvGrYT1bPrFfDgbUZ8istno0s6pW0fLyyX3/z6OYCRWBmgIUADWJaOCTQHLAWUmbNrlZkA+3Z5XjF/WHlrf1/71PxtONNblAkIqjVikEfjXdvnJY/glt9NLu1l4f9yzlwMMQPgvI1UZ5IBCewNUDbbPm6llfNlqd5+jsnpD9/ucsb+1b62h81sO68TuLDx8djW6UgU6yPtiUBtA/jeLqGcva1wV5sakpkbBQUAIUAEGlk8k8W6Ay3PkhuZp+ch66Q3u72LA8nafKvd0z9GNbvyB7Qv706efc+F/fNhJFy/nM341sEIUdAQoAO6706pDAqqHOJfJG/5qENN+BsNaMRKW3smHZNxOrBjvfJzc+Sgq12fu+kvtPsRyk+Fn10LyLkmNKch+dARHIUYACIEdshmqcwDfu7jq4eZf5kLzh/0qiOCj/SMwP5ECyD/NZ8uTyNwx0vTCO4o/L3oALpFVp8pbWXlkjp2JeHPrZGNb06Ng7AQoA71JGwNMRuGG44/mjRl8qb/x3SD9N0+mrzmXvl+MQPlZe1PdNn2/tW+dcM2l2/YaOY+Kqvlw6W5pJh7U7+Z6O1UXd7X2DtZvSAoFwBCgAwsklM0khUNnQ+Qo1qi6W3b3JKWnPS7FovU2/L2cifH3ujuiLS5b07qp3Ido9I9Az2LFIbvb0QXlmsXxl/dFAVXK/Xhn9xe6W3grF2TPufFccAQqA4uSamU4gMDDQ1vRoNLvFaPMmOd3rTNlov3iCZvU8Nb5BMTeVRks3nXXK2l/WsxBtagus3rj0oKe2j3SM5UjpN8oSUy3YnpRl++Xsi5ubR0ZuDfmqi7VVaYGAnIgLAgIIPCNw3XDHa+VmLyfIL8bzjY4WyD0GFsirydfz5Wue/MY8JGcVbJHvH5Rfny1amy1xrO5vHh1ZxwZFVCw/koLtET1zURRFr4klJ1FsFshHLJIfI/nRSZ6a5UvyY7YYo7fIqR8Pxlr+j6r3mdIhd5RP7HnKcoh0j4A3Av8fPxkGGPApnlgAAAAASUVORK5CYII=;" parent="Lc69PInTfA7sejHYpEJL-4" vertex="1">
          <mxGeometry x="120" y="35" width="82.5" height="82.5" as="geometry" />
        </mxCell>
        <mxCell id="Lc69PInTfA7sejHYpEJL-8" value="BackOffice" style="verticalLabelPosition=bottom;aspect=fixed;html=1;shape=mxgraph.salesforce.web;fillColorStyles=fillColor2,fillColor3,fillColor4;fillColor2=#032d60;fillColor3=#0d9dda;fillColor4=#ffffff;fillColor=none;strokeColor=none;" parent="Lc69PInTfA7sejHYpEJL-4" vertex="1">
          <mxGeometry x="230" y="52.55000000000001" width="60" height="47.400000000000006" as="geometry" />
        </mxCell>
        <mxCell id="Lc69PInTfA7sejHYpEJL-9" value="CLIENTS" style="text;html=1;align=center;verticalAlign=middle;whiteSpace=wrap;rounded=0;fillColor=default;" parent="Lc69PInTfA7sejHYpEJL-4" vertex="1">
          <mxGeometry x="30" width="60" height="30" as="geometry" />
        </mxCell>
        <mxCell id="Lc69PInTfA7sejHYpEJL-18" style="edgeStyle=orthogonalEdgeStyle;rounded=0;orthogonalLoop=1;jettySize=auto;html=1;fontStyle=1;entryX=0.806;entryY=0.002;entryDx=0;entryDy=0;entryPerimeter=0;" parent="1" source="Lc69PInTfA7sejHYpEJL-10" target="Lc69PInTfA7sejHYpEJL-1" edge="1">
          <mxGeometry relative="1" as="geometry">
            <mxPoint x="675" y="789" as="targetPoint" />
          </mxGeometry>
        </mxCell>
        <mxCell id="Lc69PInTfA7sejHYpEJL-19" value="JSON" style="edgeLabel;html=1;align=center;verticalAlign=middle;resizable=0;points=[];fontStyle=1" parent="Lc69PInTfA7sejHYpEJL-18" vertex="1" connectable="0">
          <mxGeometry x="0.0785" y="-3" relative="1" as="geometry">
            <mxPoint x="4" as="offset" />
          </mxGeometry>
        </mxCell>
        <mxCell id="Lc69PInTfA7sejHYpEJL-22" value="" style="group" parent="1" vertex="1" connectable="0">
          <mxGeometry x="115" y="1110" width="546.96" height="290" as="geometry" />
        </mxCell>
        <mxCell id="Lc69PInTfA7sejHYpEJL-23" value="&lt;b&gt;Data stores&lt;/b&gt;" style="rounded=0;whiteSpace=wrap;html=1;fillColor=none;align=left;verticalAlign=top;" parent="Lc69PInTfA7sejHYpEJL-22" vertex="1">
          <mxGeometry x="-60" y="-40" width="593.48" height="330" as="geometry" />
        </mxCell>
        <mxCell id="Lc69PInTfA7sejHYpEJL-24" value="S3" style="outlineConnect=0;dashed=0;verticalLabelPosition=top;verticalAlign=bottom;align=center;html=1;shape=mxgraph.aws3.s3;fillColor=#E05243;gradientColor=none;fontStyle=1;labelPosition=center;" parent="Lc69PInTfA7sejHYpEJL-22" vertex="1">
          <mxGeometry x="106.88488730723608" y="19.04" width="53.16765519968367" height="67.32" as="geometry" />
        </mxCell>
        <mxCell id="Lc69PInTfA7sejHYpEJL-25" value="&lt;b&gt;OpenSearch&lt;/b&gt;" style="sketch=0;points=[[0,0,0],[0.25,0,0],[0.5,0,0],[0.75,0,0],[1,0,0],[0,1,0],[0.25,1,0],[0.5,1,0],[0.75,1,0],[1,1,0],[0,0.25,0],[0,0.5,0],[0,0.75,0],[1,0.25,0],[1,0.5,0],[1,0.75,0]];outlineConnect=0;fontColor=#232F3E;fillColor=#8C4FFF;strokeColor=#ffffff;dashed=0;verticalLabelPosition=top;verticalAlign=bottom;align=center;html=1;fontSize=12;fontStyle=0;aspect=fixed;shape=mxgraph.aws4.resourceIcon;resIcon=mxgraph.aws4.elasticsearch_service;labelPosition=center;" parent="Lc69PInTfA7sejHYpEJL-22" vertex="1">
          <mxGeometry x="187.98468040994734" y="26.259370629370622" width="62.179122182680906" height="62.179122182680906" as="geometry" />
        </mxCell>
        <mxCell id="Lc69PInTfA7sejHYpEJL-199" style="edgeStyle=orthogonalEdgeStyle;rounded=0;orthogonalLoop=1;jettySize=auto;html=1;" parent="Lc69PInTfA7sejHYpEJL-22" source="Lc69PInTfA7sejHYpEJL-26" target="Lc69PInTfA7sejHYpEJL-197" edge="1">
          <mxGeometry relative="1" as="geometry" />
        </mxCell>
        <mxCell id="Lc69PInTfA7sejHYpEJL-26" value="&lt;b&gt;AURORA&lt;/b&gt;" style="sketch=0;points=[[0,0,0],[0.25,0,0],[0.5,0,0],[0.75,0,0],[1,0,0],[0,1,0],[0.25,1,0],[0.5,1,0],[0.75,1,0],[1,1,0],[0,0.25,0],[0,0.5,0],[0,0.75,0],[1,0.25,0],[1,0.5,0],[1,0.75,0]];outlineConnect=0;fontColor=#232F3E;fillColor=#C925D1;strokeColor=#ffffff;dashed=0;verticalLabelPosition=top;verticalAlign=bottom;align=center;html=1;fontSize=12;fontStyle=0;aspect=fixed;shape=mxgraph.aws4.resourceIcon;resIcon=mxgraph.aws4.aurora;labelPosition=center;" parent="Lc69PInTfA7sejHYpEJL-22" vertex="1">
          <mxGeometry x="269.4396714436857" y="25.75118881118882" width="63.080268880980626" height="63.080268880980626" as="geometry" />
        </mxCell>
        <mxCell id="Lc69PInTfA7sejHYpEJL-30" value="REDIS" style="image;sketch=0;aspect=fixed;html=1;points=[];align=center;fontSize=12;image=img/lib/mscae/Cache_Redis_Product.svg;fontStyle=1" parent="Lc69PInTfA7sejHYpEJL-22" vertex="1">
          <mxGeometry x="24.88053776196125" y="145.45999999999998" width="52.563886911822856" height="44.15618821668644" as="geometry" />
        </mxCell>
        <mxCell id="Lc69PInTfA7sejHYpEJL-31" style="edgeStyle=orthogonalEdgeStyle;rounded=0;orthogonalLoop=1;jettySize=auto;html=1;" parent="Lc69PInTfA7sejHYpEJL-22" source="Lc69PInTfA7sejHYpEJL-32" target="Lc69PInTfA7sejHYpEJL-30" edge="1">
          <mxGeometry relative="1" as="geometry" />
        </mxCell>
        <mxCell id="Lc69PInTfA7sejHYpEJL-32" value="Elastic Cache" style="outlineConnect=0;dashed=0;verticalLabelPosition=top;verticalAlign=bottom;align=center;html=1;shape=mxgraph.aws3.elasticache;fillColor=#2E73B8;gradientColor=none;fontStyle=1;horizontal=1;spacingBottom=0;labelPosition=center;" parent="Lc69PInTfA7sejHYpEJL-22" vertex="1">
          <mxGeometry x="24.88053776196125" y="25.36" width="54.0688018979834" height="70.1" as="geometry" />
        </mxCell>
        <mxCell id="Lc69PInTfA7sejHYpEJL-196" value="POC PostgreSQL" style="image;aspect=fixed;html=1;points=[];align=center;fontSize=12;image=img/lib/azure2/databases/Azure_Database_PostgreSQL_Server.svg;fontStyle=1" parent="Lc69PInTfA7sejHYpEJL-22" vertex="1">
          <mxGeometry x="425" y="189.6199999999999" width="43.25504151838672" height="57.67338869118229" as="geometry" />
        </mxCell>
        <mxCell id="Lc69PInTfA7sejHYpEJL-197" value="Kata PostgreSQL" style="image;aspect=fixed;html=1;points=[];align=center;fontSize=12;image=img/lib/azure2/databases/Azure_Database_PostgreSQL_Server.svg;fontStyle=1" parent="Lc69PInTfA7sejHYpEJL-22" vertex="1">
          <mxGeometry x="279.34999999999997" y="189.6199999999999" width="43.25504151838672" height="57.67338869118229" as="geometry" />
        </mxCell>
        <mxCell id="Lc69PInTfA7sejHYpEJL-198" style="edgeStyle=orthogonalEdgeStyle;rounded=0;orthogonalLoop=1;jettySize=auto;html=1;entryX=0.5;entryY=0.003;entryDx=0;entryDy=0;entryPerimeter=0;" parent="Lc69PInTfA7sejHYpEJL-22" source="Lc69PInTfA7sejHYpEJL-26" target="Lc69PInTfA7sejHYpEJL-196" edge="1">
          <mxGeometry relative="1" as="geometry" />
        </mxCell>
        <mxCell id="Lc69PInTfA7sejHYpEJL-34" value="" style="group" parent="1" vertex="1" connectable="0">
          <mxGeometry x="690" y="1110" width="290" height="180" as="geometry" />
        </mxCell>
        <mxCell id="Lc69PInTfA7sejHYpEJL-35" value="&lt;b&gt;Observability&lt;/b&gt;" style="rounded=0;whiteSpace=wrap;html=1;fillColor=none;align=left;verticalAlign=top;" parent="Lc69PInTfA7sejHYpEJL-34" vertex="1">
          <mxGeometry width="290" height="180" as="geometry" />
        </mxCell>
        <mxCell id="Lc69PInTfA7sejHYpEJL-36" style="edgeStyle=orthogonalEdgeStyle;rounded=0;orthogonalLoop=1;jettySize=auto;html=1;" parent="Lc69PInTfA7sejHYpEJL-34" source="Lc69PInTfA7sejHYpEJL-37" target="Lc69PInTfA7sejHYpEJL-38" edge="1">
          <mxGeometry relative="1" as="geometry" />
        </mxCell>
        <mxCell id="Lc69PInTfA7sejHYpEJL-37" value="&lt;b&gt;CloudWatch&lt;/b&gt;" style="outlineConnect=0;dashed=0;verticalLabelPosition=bottom;verticalAlign=top;align=center;html=1;shape=mxgraph.aws3.cloudwatch;fillColor=#759C3E;gradientColor=none;" parent="Lc69PInTfA7sejHYpEJL-34" vertex="1">
          <mxGeometry x="40" y="39.5" width="60" height="78" as="geometry" />
        </mxCell>
        <mxCell id="Lc69PInTfA7sejHYpEJL-38" value="&lt;b&gt;Grafana&lt;/b&gt;" style="image;aspect=fixed;html=1;points=[];align=center;fontSize=12;image=img/lib/azure2/other/Grafana.svg;" parent="Lc69PInTfA7sejHYpEJL-34" vertex="1">
          <mxGeometry x="190" y="52.09999999999991" width="68" height="52.800000000000004" as="geometry" />
        </mxCell>
        <mxCell id="Lc69PInTfA7sejHYpEJL-50" value="" style="group" parent="1" vertex="1" connectable="0">
          <mxGeometry x="1010" y="1110" width="180" height="160" as="geometry" />
        </mxCell>
        <mxCell id="Lc69PInTfA7sejHYpEJL-51" value="&lt;b&gt;Streaming&lt;/b&gt;" style="rounded=0;whiteSpace=wrap;html=1;fillColor=none;align=left;verticalAlign=top;" parent="Lc69PInTfA7sejHYpEJL-50" vertex="1">
          <mxGeometry width="180" height="160" as="geometry" />
        </mxCell>
        <mxCell id="Lc69PInTfA7sejHYpEJL-52" value="AWS Chime" style="sketch=0;points=[[0,0,0],[0.25,0,0],[0.5,0,0],[0.75,0,0],[1,0,0],[0,1,0],[0.25,1,0],[0.5,1,0],[0.75,1,0],[1,1,0],[0,0.25,0],[0,0.5,0],[0,0.75,0],[1,0.25,0],[1,0.5,0],[1,0.75,0]];outlineConnect=0;fontColor=#232F3E;fillColor=#DD344C;strokeColor=#ffffff;dashed=0;verticalLabelPosition=bottom;verticalAlign=top;align=center;html=1;fontSize=12;fontStyle=1;aspect=fixed;shape=mxgraph.aws4.resourceIcon;resIcon=mxgraph.aws4.chime;" parent="Lc69PInTfA7sejHYpEJL-50" vertex="1">
          <mxGeometry x="60.75" y="50.75" width="58.5" height="58.5" as="geometry" />
        </mxCell>
        <mxCell id="Lc69PInTfA7sejHYpEJL-55" value="" style="group" parent="1" vertex="1" connectable="0">
          <mxGeometry x="120" y="10" width="180" height="314" as="geometry" />
        </mxCell>
        <mxCell id="Lc69PInTfA7sejHYpEJL-56" value="" style="rounded=0;whiteSpace=wrap;html=1;fillColor=none;" parent="Lc69PInTfA7sejHYpEJL-55" vertex="1">
          <mxGeometry y="14" width="180" height="300" as="geometry" />
        </mxCell>
        <mxCell id="Lc69PInTfA7sejHYpEJL-57" value="AZ 1" style="rounded=0;whiteSpace=wrap;html=1;" parent="Lc69PInTfA7sejHYpEJL-55" vertex="1">
          <mxGeometry x="26.960000000000008" y="44" width="120" height="60" as="geometry" />
        </mxCell>
        <mxCell id="Lc69PInTfA7sejHYpEJL-58" value="AZ 2" style="rounded=0;whiteSpace=wrap;html=1;" parent="Lc69PInTfA7sejHYpEJL-55" vertex="1">
          <mxGeometry x="30" y="134" width="120" height="60" as="geometry" />
        </mxCell>
        <mxCell id="Lc69PInTfA7sejHYpEJL-59" value="AZ 3" style="rounded=0;whiteSpace=wrap;html=1;" parent="Lc69PInTfA7sejHYpEJL-55" vertex="1">
          <mxGeometry x="30" y="224" width="120" height="60" as="geometry" />
        </mxCell>
        <mxCell id="Lc69PInTfA7sejHYpEJL-60" value="AWS MULT AZ" style="text;html=1;align=center;verticalAlign=middle;whiteSpace=wrap;rounded=0;fillColor=default;fontStyle=1" parent="Lc69PInTfA7sejHYpEJL-55" vertex="1">
          <mxGeometry x="21.960000000000008" width="130" height="30" as="geometry" />
        </mxCell>
        <mxCell id="Lc69PInTfA7sejHYpEJL-73" value="" style="group" parent="1" vertex="1" connectable="0">
          <mxGeometry x="921" y="20" width="640" height="250" as="geometry" />
        </mxCell>
        <mxCell id="Lc69PInTfA7sejHYpEJL-74" value="" style="rounded=0;whiteSpace=wrap;html=1;" parent="Lc69PInTfA7sejHYpEJL-73" vertex="1">
          <mxGeometry width="640" height="250" as="geometry" />
        </mxCell>
        <mxCell id="Lc69PInTfA7sejHYpEJL-75" style="edgeStyle=orthogonalEdgeStyle;rounded=0;orthogonalLoop=1;jettySize=auto;html=1;" parent="Lc69PInTfA7sejHYpEJL-73" source="Lc69PInTfA7sejHYpEJL-76" target="Lc69PInTfA7sejHYpEJL-81" edge="1">
          <mxGeometry relative="1" as="geometry" />
        </mxCell>
        <mxCell id="Lc69PInTfA7sejHYpEJL-76" value="&lt;b&gt;AWS CodeCommit&lt;/b&gt;" style="outlineConnect=0;dashed=0;verticalLabelPosition=bottom;verticalAlign=top;align=center;html=1;shape=mxgraph.aws3.codedeploy;fillColor=#759C3E;gradientColor=none;" parent="Lc69PInTfA7sejHYpEJL-73" vertex="1">
          <mxGeometry x="210.1492537313433" y="80.9090909090909" width="46.80597014925373" height="54.54545454545455" as="geometry" />
        </mxCell>
        <mxCell id="Lc69PInTfA7sejHYpEJL-77" style="edgeStyle=orthogonalEdgeStyle;rounded=0;orthogonalLoop=1;jettySize=auto;html=1;" parent="Lc69PInTfA7sejHYpEJL-73" source="Lc69PInTfA7sejHYpEJL-78" edge="1">
          <mxGeometry relative="1" as="geometry">
            <mxPoint x="210.1492537313433" y="108.18181818181817" as="targetPoint" />
          </mxGeometry>
        </mxCell>
        <mxCell id="Lc69PInTfA7sejHYpEJL-78" value="" style="verticalLabelPosition=bottom;html=1;verticalAlign=top;align=center;strokeColor=none;fillColor=#00BEF2;shape=mxgraph.azure.git_repository;" parent="Lc69PInTfA7sejHYpEJL-73" vertex="1">
          <mxGeometry x="114.6268656716418" y="85.45454545454545" width="47.76119402985074" height="45.45454545454545" as="geometry" />
        </mxCell>
        <mxCell id="Lc69PInTfA7sejHYpEJL-79" value="" style="aspect=fixed;sketch=0;html=1;dashed=0;whitespace=wrap;verticalLabelPosition=bottom;verticalAlign=top;fillColor=#2875E2;strokeColor=#ffffff;points=[[0.005,0.63,0],[0.1,0.2,0],[0.9,0.2,0],[0.5,0,0],[0.995,0.63,0],[0.72,0.99,0],[0.5,1,0],[0.28,0.99,0]];shape=mxgraph.kubernetes.icon2;prIcon=user" parent="Lc69PInTfA7sejHYpEJL-73" vertex="1">
          <mxGeometry x="9.552238805970148" y="86.36363636363636" width="45.45454545454545" height="43.63636363636363" as="geometry" />
        </mxCell>
        <mxCell id="Lc69PInTfA7sejHYpEJL-80" style="edgeStyle=orthogonalEdgeStyle;rounded=0;orthogonalLoop=1;jettySize=auto;html=1;entryX=0;entryY=0.5;entryDx=0;entryDy=0;entryPerimeter=0;" parent="Lc69PInTfA7sejHYpEJL-73" source="Lc69PInTfA7sejHYpEJL-79" target="Lc69PInTfA7sejHYpEJL-78" edge="1">
          <mxGeometry relative="1" as="geometry" />
        </mxCell>
        <mxCell id="Lc69PInTfA7sejHYpEJL-81" value="&lt;b&gt;AWS Pipeline&lt;/b&gt;" style="outlineConnect=0;dashed=0;verticalLabelPosition=top;verticalAlign=bottom;align=center;html=1;shape=mxgraph.aws3.codepipeline;fillColor=#759C3E;gradientColor=none;labelPosition=center;" parent="Lc69PInTfA7sejHYpEJL-73" vertex="1">
          <mxGeometry x="324.77611940298505" y="35.45454545454545" width="47.76119402985074" height="60" as="geometry" />
        </mxCell>
        <mxCell id="Lc69PInTfA7sejHYpEJL-82" style="edgeStyle=orthogonalEdgeStyle;rounded=0;orthogonalLoop=1;jettySize=auto;html=1;" parent="Lc69PInTfA7sejHYpEJL-73" source="Lc69PInTfA7sejHYpEJL-83" target="Lc69PInTfA7sejHYpEJL-86" edge="1">
          <mxGeometry relative="1" as="geometry" />
        </mxCell>
        <mxCell id="Lc69PInTfA7sejHYpEJL-83" value="&lt;b&gt;AWS Code Build&lt;/b&gt;" style="outlineConnect=0;dashed=0;verticalLabelPosition=bottom;verticalAlign=top;align=center;html=1;shape=mxgraph.aws3.codebuild;fillColor=#759C3E;gradientColor=none;" parent="Lc69PInTfA7sejHYpEJL-73" vertex="1">
          <mxGeometry x="324.77611940298505" y="140.9090909090909" width="47.76119402985074" height="54.54545454545455" as="geometry" />
        </mxCell>
        <mxCell id="Lc69PInTfA7sejHYpEJL-84" style="edgeStyle=orthogonalEdgeStyle;rounded=0;orthogonalLoop=1;jettySize=auto;html=1;entryX=0.5;entryY=0;entryDx=0;entryDy=0;entryPerimeter=0;" parent="Lc69PInTfA7sejHYpEJL-73" source="Lc69PInTfA7sejHYpEJL-81" target="Lc69PInTfA7sejHYpEJL-83" edge="1">
          <mxGeometry relative="1" as="geometry" />
        </mxCell>
        <mxCell id="Lc69PInTfA7sejHYpEJL-85" style="edgeStyle=orthogonalEdgeStyle;rounded=0;orthogonalLoop=1;jettySize=auto;html=1;" parent="Lc69PInTfA7sejHYpEJL-73" source="Lc69PInTfA7sejHYpEJL-86" target="Lc69PInTfA7sejHYpEJL-87" edge="1">
          <mxGeometry relative="1" as="geometry">
            <mxPoint x="554.0298507462686" y="108.18181818181817" as="targetPoint" />
          </mxGeometry>
        </mxCell>
        <mxCell id="Lc69PInTfA7sejHYpEJL-86" value="AWS Code Deploy" style="outlineConnect=0;dashed=0;verticalLabelPosition=bottom;verticalAlign=top;align=center;html=1;shape=mxgraph.aws3.codedeploy;fillColor=#759C3E;gradientColor=none;" parent="Lc69PInTfA7sejHYpEJL-73" vertex="1">
          <mxGeometry x="439.4029850746269" y="73.63636363636364" width="57.3134328358209" height="69.0909090909091" as="geometry" />
        </mxCell>
        <mxCell id="Lc69PInTfA7sejHYpEJL-87" value="&lt;b&gt;Service&lt;/b&gt;" style="sketch=0;outlineConnect=0;fontColor=#232F3E;gradientColor=none;fillColor=#ED7100;strokeColor=none;dashed=0;verticalLabelPosition=bottom;verticalAlign=top;align=center;html=1;fontSize=12;fontStyle=0;aspect=fixed;pointerEvents=1;shape=mxgraph.aws4.instance2;" parent="Lc69PInTfA7sejHYpEJL-73" vertex="1">
          <mxGeometry x="563.5820895522388" y="86.36363636363636" width="43.63636363636363" height="43.63636363636363" as="geometry" />
        </mxCell>
        <mxCell id="Lc69PInTfA7sejHYpEJL-88" value="&lt;b&gt;Deployment&lt;/b&gt;" style="text;html=1;align=center;verticalAlign=middle;whiteSpace=wrap;rounded=0;" parent="Lc69PInTfA7sejHYpEJL-73" vertex="1">
          <mxGeometry x="9.552238805970148" width="57.3134328358209" height="27.272727272727273" as="geometry" />
        </mxCell>
        <mxCell id="Lc69PInTfA7sejHYpEJL-29" value="CDN" style="outlineConnect=0;dashed=0;verticalLabelPosition=bottom;verticalAlign=top;align=center;html=1;shape=mxgraph.aws3.cloudfront;fillColor=#F58536;gradientColor=none;fontStyle=1;labelPosition=center;" parent="1" vertex="1">
          <mxGeometry x="661.96" y="201.75" width="47.5" height="56.5" as="geometry" />
        </mxCell>
        <mxCell id="Lc69PInTfA7sejHYpEJL-92" style="edgeStyle=orthogonalEdgeStyle;rounded=0;orthogonalLoop=1;jettySize=auto;html=1;entryX=0.5;entryY=0;entryDx=0;entryDy=0;entryPerimeter=0;" parent="1" source="Lc69PInTfA7sejHYpEJL-5" target="Lc69PInTfA7sejHYpEJL-3" edge="1">
          <mxGeometry relative="1" as="geometry" />
        </mxCell>
        <mxCell id="Lc69PInTfA7sejHYpEJL-93" style="edgeStyle=orthogonalEdgeStyle;rounded=0;orthogonalLoop=1;jettySize=auto;html=1;entryX=0;entryY=0.5;entryDx=0;entryDy=0;entryPerimeter=0;" parent="1" source="Lc69PInTfA7sejHYpEJL-3" target="Lc69PInTfA7sejHYpEJL-29" edge="1">
          <mxGeometry relative="1" as="geometry" />
        </mxCell>
        <mxCell id="Lc69PInTfA7sejHYpEJL-96" style="edgeStyle=orthogonalEdgeStyle;rounded=0;orthogonalLoop=1;jettySize=auto;html=1;entryX=0.02;entryY=0.5;entryDx=0;entryDy=0;entryPerimeter=0;" parent="1" source="Lc69PInTfA7sejHYpEJL-29" target="Lc69PInTfA7sejHYpEJL-95" edge="1">
          <mxGeometry relative="1" as="geometry" />
        </mxCell>
        <mxCell id="Lc69PInTfA7sejHYpEJL-103" value="&lt;b&gt;RLS CONTROL&lt;/b&gt;" style="text;html=1;align=center;verticalAlign=middle;resizable=0;points=[];autosize=1;strokeColor=none;fillColor=default;" parent="1" vertex="1">
          <mxGeometry x="449" y="1428" width="110" height="30" as="geometry" />
        </mxCell>
        <mxCell id="Lc69PInTfA7sejHYpEJL-105" value="" style="group" parent="1" vertex="1" connectable="0">
          <mxGeometry x="757" y="208.4" width="60" height="79.85" as="geometry" />
        </mxCell>
        <mxCell id="Lc69PInTfA7sejHYpEJL-95" value="" style="points=[];aspect=fixed;html=1;align=center;shadow=0;dashed=0;fillColor=#FF6A00;strokeColor=none;shape=mxgraph.alibaba_cloud.waf_web_application_firewall;" parent="Lc69PInTfA7sejHYpEJL-105" vertex="1">
          <mxGeometry width="49.199999999999996" height="43.199999999999996" as="geometry" />
        </mxCell>
        <mxCell id="Lc69PInTfA7sejHYpEJL-104" value="WAF" style="text;html=1;align=center;verticalAlign=middle;whiteSpace=wrap;rounded=0;fontStyle=1;fillColor=default;" parent="Lc69PInTfA7sejHYpEJL-105" vertex="1">
          <mxGeometry y="49.849999999999994" width="60" height="30" as="geometry" />
        </mxCell>
        <mxCell id="Lc69PInTfA7sejHYpEJL-129" style="edgeStyle=orthogonalEdgeStyle;rounded=0;orthogonalLoop=1;jettySize=auto;html=1;entryX=0.5;entryY=0;entryDx=0;entryDy=0;" parent="1" source="Lc69PInTfA7sejHYpEJL-12" target="Lc69PInTfA7sejHYpEJL-1" edge="1">
          <mxGeometry relative="1" as="geometry">
            <Array as="points">
              <mxPoint x="585" y="498" />
            </Array>
          </mxGeometry>
        </mxCell>
        <mxCell id="Lc69PInTfA7sejHYpEJL-135" style="edgeStyle=orthogonalEdgeStyle;rounded=0;orthogonalLoop=1;jettySize=auto;html=1;entryX=0.573;entryY=0.001;entryDx=0;entryDy=0;entryPerimeter=0;" parent="1" source="Lc69PInTfA7sejHYpEJL-104" target="Lc69PInTfA7sejHYpEJL-12" edge="1">
          <mxGeometry relative="1" as="geometry">
            <Array as="points">
              <mxPoint x="787" y="360" />
              <mxPoint x="685" y="360" />
            </Array>
          </mxGeometry>
        </mxCell>
        <mxCell id="Lc69PInTfA7sejHYpEJL-140" value="" style="group;movable=0;resizable=0;rotatable=0;deletable=0;editable=0;locked=1;connectable=0;" parent="1" vertex="1" connectable="0">
          <mxGeometry x="467.75" y="403.35" width="406.5" height="310.79999999999995" as="geometry" />
        </mxCell>
        <mxCell id="Lc69PInTfA7sejHYpEJL-61" value="" style="rounded=0;whiteSpace=wrap;html=1;fillColor=none;strokeColor=#6c8ebf;strokeWidth=2;labelBackgroundColor=default;" parent="Lc69PInTfA7sejHYpEJL-140" vertex="1">
          <mxGeometry y="26.649999999999977" width="406.5" height="284.15" as="geometry" />
        </mxCell>
        <mxCell id="Lc69PInTfA7sejHYpEJL-11" value="" style="group" parent="Lc69PInTfA7sejHYpEJL-140" vertex="1" connectable="0">
          <mxGeometry x="135.75" y="39.99739130434784" width="142" height="100.00260869565216" as="geometry" />
        </mxCell>
        <mxCell id="Lc69PInTfA7sejHYpEJL-12" value="" style="rounded=0;whiteSpace=wrap;html=1;fillColor=none;" parent="Lc69PInTfA7sejHYpEJL-11" vertex="1">
          <mxGeometry y="10.002608695652157" width="142" height="90" as="geometry" />
        </mxCell>
        <mxCell id="Lc69PInTfA7sejHYpEJL-13" value="" style="points=[];aspect=fixed;html=1;align=center;shadow=0;dashed=0;fillColor=#FF6A00;strokeColor=none;shape=mxgraph.alibaba_cloud.alb_application_load_balancer_02;" parent="Lc69PInTfA7sejHYpEJL-11" vertex="1">
          <mxGeometry x="57" y="20.002608695652157" width="50" height="50" as="geometry" />
        </mxCell>
        <mxCell id="Lc69PInTfA7sejHYpEJL-14" value="ELB" style="verticalLabelPosition=bottom;html=1;verticalAlign=top;strokeWidth=1;align=center;outlineConnect=0;dashed=0;outlineConnect=0;shape=mxgraph.aws3d.elasticLoadBalancing;fillColor=#ECECEC;strokeColor=#5E5E5E;aspect=fixed;strokeColor2=#292929;" parent="Lc69PInTfA7sejHYpEJL-11" vertex="1">
          <mxGeometry x="12" y="-10" width="35.35" height="33.88" as="geometry" />
        </mxCell>
        <mxCell id="Lc69PInTfA7sejHYpEJL-15" value="&lt;b&gt;ALB&lt;/b&gt;" style="text;html=1;align=center;verticalAlign=middle;whiteSpace=wrap;rounded=0;" parent="Lc69PInTfA7sejHYpEJL-11" vertex="1">
          <mxGeometry x="52" y="70.00260869565216" width="60" height="30" as="geometry" />
        </mxCell>
        <mxCell id="Lc69PInTfA7sejHYpEJL-16" style="edgeStyle=orthogonalEdgeStyle;rounded=0;orthogonalLoop=1;jettySize=auto;html=1;" parent="Lc69PInTfA7sejHYpEJL-140" source="Lc69PInTfA7sejHYpEJL-12" target="Lc69PInTfA7sejHYpEJL-10" edge="1">
          <mxGeometry relative="1" as="geometry" />
        </mxCell>
        <mxCell id="Lc69PInTfA7sejHYpEJL-62" value="&lt;span style=&quot;color: rgb(0, 0, 0); background-color: rgb(255, 255, 255);&quot;&gt;Initial Security Layer&lt;/span&gt;" style="sketch=0;points=[[0,0,0],[0.25,0,0],[0.5,0,0],[0.75,0,0],[1,0,0],[0,1,0],[0.25,1,0],[0.5,1,0],[0.75,1,0],[1,1,0],[0,0.25,0],[0,0.5,0],[0,0.75,0],[1,0.25,0],[1,0.5,0],[1,0.75,0]];outlineConnect=0;fontColor=#232F3E;fillColor=#8C4FFF;strokeColor=#ffffff;dashed=0;verticalLabelPosition=bottom;verticalAlign=top;align=center;html=1;fontSize=12;fontStyle=0;aspect=fixed;shape=mxgraph.aws4.resourceIcon;resIcon=mxgraph.aws4.vpc;" parent="Lc69PInTfA7sejHYpEJL-140" vertex="1">
          <mxGeometry x="11.589999999999975" width="48" height="48" as="geometry" />
        </mxCell>
        <mxCell id="Lc69PInTfA7sejHYpEJL-10" value="&lt;b style=&quot;background-color: light-dark(#ffffff, var(--ge-dark-color, #121212));&quot;&gt;COGNITO&lt;/b&gt;" style="outlineConnect=0;dashed=0;verticalLabelPosition=bottom;verticalAlign=top;align=center;html=1;shape=mxgraph.aws3.cognito;fillColor=#AD688B;gradientColor=none;" parent="Lc69PInTfA7sejHYpEJL-140" vertex="1">
          <mxGeometry x="176.25" y="190" width="61" height="70" as="geometry" />
        </mxCell>
        <mxCell id="Lc69PInTfA7sejHYpEJL-188" style="edgeStyle=orthogonalEdgeStyle;rounded=0;orthogonalLoop=1;jettySize=auto;html=1;startArrow=classic;startFill=1;" parent="1" source="Lc69PInTfA7sejHYpEJL-63" target="Lc69PInTfA7sejHYpEJL-23" edge="1">
          <mxGeometry relative="1" as="geometry">
            <Array as="points">
              <mxPoint x="605" y="1040" />
              <mxPoint x="352" y="1040" />
            </Array>
          </mxGeometry>
        </mxCell>
        <mxCell id="Lc69PInTfA7sejHYpEJL-191" value="" style="group" parent="1" vertex="1" connectable="0">
          <mxGeometry x="929.9999999999998" y="650" width="192.1500000000001" height="199.14999999999998" as="geometry" />
        </mxCell>
        <mxCell id="Lc69PInTfA7sejHYpEJL-131" value="&lt;div&gt;*.kata.com&lt;/div&gt;blueteam.kata.com" style="rounded=0;whiteSpace=wrap;html=1;container=0;fillColor=#f5f5f5;strokeColor=#666666;fontStyle=1;fontColor=#333333;" parent="Lc69PInTfA7sejHYpEJL-191" vertex="1">
          <mxGeometry x="20" y="109.14999999999998" width="172.15" height="90" as="geometry" />
        </mxCell>
        <mxCell id="Lc69PInTfA7sejHYpEJL-106" value="NameSpace" style="sketch=0;outlineConnect=0;fontColor=#232F3E;gradientColor=none;fillColor=#8C4FFF;strokeColor=none;dashed=0;verticalLabelPosition=top;verticalAlign=bottom;align=center;html=1;fontSize=12;fontStyle=1;aspect=fixed;pointerEvents=1;shape=mxgraph.aws4.namespace;labelPosition=center;container=0;" parent="Lc69PInTfA7sejHYpEJL-191" vertex="1">
          <mxGeometry y="105" width="34.3" height="34.3" as="geometry" />
        </mxCell>
        <mxCell id="Lc69PInTfA7sejHYpEJL-136" value="" style="sketch=0;outlineConnect=0;fontColor=#232F3E;gradientColor=none;fillColor=#7AA116;strokeColor=none;dashed=0;verticalLabelPosition=bottom;verticalAlign=top;align=center;html=1;fontSize=12;fontStyle=0;aspect=fixed;pointerEvents=1;shape=mxgraph.aws4.http_protocol;container=0;" parent="Lc69PInTfA7sejHYpEJL-191" vertex="1">
          <mxGeometry x="72.00000000000023" width="50" height="50" as="geometry" />
        </mxCell>
        <mxCell id="Lc69PInTfA7sejHYpEJL-137" style="edgeStyle=orthogonalEdgeStyle;rounded=0;orthogonalLoop=1;jettySize=auto;html=1;entryX=0.446;entryY=-0.003;entryDx=0;entryDy=0;entryPerimeter=0;" parent="Lc69PInTfA7sejHYpEJL-191" source="Lc69PInTfA7sejHYpEJL-136" target="Lc69PInTfA7sejHYpEJL-131" edge="1">
          <mxGeometry relative="1" as="geometry" />
        </mxCell>
        <mxCell id="Lc69PInTfA7sejHYpEJL-194" style="edgeStyle=orthogonalEdgeStyle;rounded=0;orthogonalLoop=1;jettySize=auto;html=1;entryX=0.5;entryY=0;entryDx=0;entryDy=0;exitX=0.75;exitY=1;exitDx=0;exitDy=0;" parent="1" source="Lc69PInTfA7sejHYpEJL-63" target="Lc69PInTfA7sejHYpEJL-35" edge="1">
          <mxGeometry relative="1" as="geometry">
            <Array as="points">
              <mxPoint x="707" y="1040" />
              <mxPoint x="835" y="1040" />
            </Array>
          </mxGeometry>
        </mxCell>
        <mxCell id="Lc69PInTfA7sejHYpEJL-195" style="edgeStyle=orthogonalEdgeStyle;rounded=0;orthogonalLoop=1;jettySize=auto;html=1;" parent="1" source="Lc69PInTfA7sejHYpEJL-51" target="Lc69PInTfA7sejHYpEJL-63" edge="1">
          <mxGeometry relative="1" as="geometry">
            <Array as="points">
              <mxPoint x="1100" y="1040" />
              <mxPoint x="605" y="1040" />
            </Array>
          </mxGeometry>
        </mxCell>
        <mxCell id="Lc69PInTfA7sejHYpEJL-200" style="edgeStyle=orthogonalEdgeStyle;rounded=0;orthogonalLoop=1;jettySize=auto;html=1;" parent="1" source="Lc69PInTfA7sejHYpEJL-196" target="Lc69PInTfA7sejHYpEJL-103" edge="1">
          <mxGeometry relative="1" as="geometry">
            <Array as="points">
              <mxPoint x="562" y="1390" />
              <mxPoint x="530" y="1390" />
            </Array>
          </mxGeometry>
        </mxCell>
        <mxCell id="Lc69PInTfA7sejHYpEJL-201" style="edgeStyle=orthogonalEdgeStyle;rounded=0;orthogonalLoop=1;jettySize=auto;html=1;entryX=0.373;entryY=0.004;entryDx=0;entryDy=0;entryPerimeter=0;" parent="1" source="Lc69PInTfA7sejHYpEJL-197" target="Lc69PInTfA7sejHYpEJL-103" edge="1">
          <mxGeometry relative="1" as="geometry">
            <Array as="points">
              <mxPoint x="421" y="1390" />
              <mxPoint x="490" y="1390" />
            </Array>
          </mxGeometry>
        </mxCell>
        <mxCell id="VYfsRc5k7RGAkcmB3ad_-1" value="" style="group" vertex="1" connectable="0" parent="1">
          <mxGeometry x="1210" y="810" width="546.96" height="492" as="geometry" />
        </mxCell>
        <mxCell id="Lc69PInTfA7sejHYpEJL-159" value="" style="group;fillColor=default;" parent="VYfsRc5k7RGAkcmB3ad_-1" vertex="1" connectable="0">
          <mxGeometry x="87" width="410" height="139.39999999999998" as="geometry" />
        </mxCell>
        <mxCell id="Lc69PInTfA7sejHYpEJL-160" value="&lt;b&gt;POD EC2 instance contents&lt;/b&gt;" style="points=[[0,0],[0.25,0],[0.5,0],[0.75,0],[1,0],[1,0.25],[1,0.5],[1,0.75],[1,1],[0.75,1],[0.5,1],[0.25,1],[0,1],[0,0.75],[0,0.5],[0,0.25]];outlineConnect=0;gradientColor=none;html=1;whiteSpace=wrap;fontSize=12;fontStyle=0;container=0;pointerEvents=0;collapsible=0;recursiveResize=0;shape=mxgraph.aws4.group;grIcon=mxgraph.aws4.group_ec2_instance_contents;strokeColor=#D86613;fillColor=none;verticalAlign=top;align=left;spacingLeft=30;fontColor=#D86613;dashed=0;" parent="Lc69PInTfA7sejHYpEJL-159" vertex="1">
          <mxGeometry width="410" height="139.4" as="geometry" />
        </mxCell>
        <mxCell id="Lc69PInTfA7sejHYpEJL-161" style="edgeStyle=orthogonalEdgeStyle;rounded=0;orthogonalLoop=1;jettySize=auto;html=1;startArrow=classic;startFill=1;" parent="Lc69PInTfA7sejHYpEJL-159" source="Lc69PInTfA7sejHYpEJL-162" target="Lc69PInTfA7sejHYpEJL-164" edge="1">
          <mxGeometry relative="1" as="geometry" />
        </mxCell>
        <mxCell id="Lc69PInTfA7sejHYpEJL-162" value="&lt;b&gt;Kata Service&lt;/b&gt;" style="sketch=0;outlineConnect=0;fontColor=#232F3E;gradientColor=none;fillColor=#ED7100;strokeColor=none;dashed=0;verticalLabelPosition=bottom;verticalAlign=top;align=center;html=1;fontSize=12;fontStyle=0;aspect=fixed;pointerEvents=1;shape=mxgraph.aws4.instance2;container=0;" parent="Lc69PInTfA7sejHYpEJL-159" vertex="1">
          <mxGeometry x="42.690000000000055" y="39.39999999999998" width="48" height="48" as="geometry" />
        </mxCell>
        <mxCell id="Lc69PInTfA7sejHYpEJL-163" style="edgeStyle=orthogonalEdgeStyle;rounded=0;orthogonalLoop=1;jettySize=auto;html=1;startArrow=classic;startFill=1;" parent="Lc69PInTfA7sejHYpEJL-159" source="Lc69PInTfA7sejHYpEJL-164" target="Lc69PInTfA7sejHYpEJL-166" edge="1">
          <mxGeometry relative="1" as="geometry" />
        </mxCell>
        <mxCell id="Lc69PInTfA7sejHYpEJL-164" value="&lt;b&gt;Search Service&lt;/b&gt;" style="sketch=0;outlineConnect=0;fontColor=#232F3E;gradientColor=none;fillColor=#ED7100;strokeColor=none;dashed=0;verticalLabelPosition=bottom;verticalAlign=top;align=center;html=1;fontSize=12;fontStyle=0;aspect=fixed;pointerEvents=1;shape=mxgraph.aws4.instance2;container=0;" parent="Lc69PInTfA7sejHYpEJL-159" vertex="1">
          <mxGeometry x="142.69000000000005" y="39.39999999999998" width="48" height="48" as="geometry" />
        </mxCell>
        <mxCell id="Lc69PInTfA7sejHYpEJL-165" style="edgeStyle=orthogonalEdgeStyle;rounded=0;orthogonalLoop=1;jettySize=auto;html=1;startArrow=classic;startFill=1;" parent="Lc69PInTfA7sejHYpEJL-159" source="Lc69PInTfA7sejHYpEJL-166" target="Lc69PInTfA7sejHYpEJL-167" edge="1">
          <mxGeometry relative="1" as="geometry" />
        </mxCell>
        <mxCell id="Lc69PInTfA7sejHYpEJL-166" value="&lt;b&gt;POC Service&lt;/b&gt;" style="sketch=0;outlineConnect=0;fontColor=#232F3E;gradientColor=none;fillColor=#ED7100;strokeColor=none;dashed=0;verticalLabelPosition=bottom;verticalAlign=top;align=center;html=1;fontSize=12;fontStyle=0;aspect=fixed;pointerEvents=1;shape=mxgraph.aws4.instance2;container=0;" parent="Lc69PInTfA7sejHYpEJL-159" vertex="1">
          <mxGeometry x="232.69000000000005" y="39.39999999999998" width="48" height="48" as="geometry" />
        </mxCell>
        <mxCell id="Lc69PInTfA7sejHYpEJL-167" value="&lt;b&gt;Video Service&lt;/b&gt;" style="sketch=0;outlineConnect=0;fontColor=#232F3E;gradientColor=none;fillColor=#ED7100;strokeColor=none;dashed=0;verticalLabelPosition=bottom;verticalAlign=top;align=center;html=1;fontSize=12;fontStyle=0;aspect=fixed;pointerEvents=1;shape=mxgraph.aws4.instance2;container=0;" parent="Lc69PInTfA7sejHYpEJL-159" vertex="1">
          <mxGeometry x="319.29999999999995" y="39.39999999999998" width="48" height="48" as="geometry" />
        </mxCell>
        <mxCell id="Lc69PInTfA7sejHYpEJL-168" value="NameSpace" style="sketch=0;outlineConnect=0;fontColor=#232F3E;gradientColor=none;fillColor=#8C4FFF;strokeColor=none;dashed=0;verticalLabelPosition=top;verticalAlign=bottom;align=center;html=1;fontSize=12;fontStyle=1;aspect=fixed;pointerEvents=1;shape=mxgraph.aws4.namespace;labelPosition=center;container=0;" parent="Lc69PInTfA7sejHYpEJL-159" vertex="1">
          <mxGeometry x="340" y="-17" width="34.3" height="34.3" as="geometry" />
        </mxCell>
        <mxCell id="Lc69PInTfA7sejHYpEJL-169" value="" style="group" parent="VYfsRc5k7RGAkcmB3ad_-1" vertex="1" connectable="0">
          <mxGeometry y="202" width="546.96" height="290" as="geometry" />
        </mxCell>
        <mxCell id="Lc69PInTfA7sejHYpEJL-170" value="&lt;b&gt;Data stores&lt;/b&gt;" style="rounded=0;whiteSpace=wrap;html=1;fillColor=none;align=left;verticalAlign=top;" parent="Lc69PInTfA7sejHYpEJL-169" vertex="1">
          <mxGeometry x="13.48" width="520" height="290" as="geometry" />
        </mxCell>
        <mxCell id="Lc69PInTfA7sejHYpEJL-171" value="S3" style="outlineConnect=0;dashed=0;verticalLabelPosition=bottom;verticalAlign=top;align=center;html=1;shape=mxgraph.aws3.s3;fillColor=#E05243;gradientColor=none;fontStyle=1;labelPosition=center;" parent="Lc69PInTfA7sejHYpEJL-169" vertex="1">
          <mxGeometry x="208.16488730723609" y="52.68" width="53.16765519968367" height="67.32" as="geometry" />
        </mxCell>
        <mxCell id="Lc69PInTfA7sejHYpEJL-172" value="&lt;b&gt;OpenSearch&lt;/b&gt;" style="sketch=0;points=[[0,0,0],[0.25,0,0],[0.5,0,0],[0.75,0,0],[1,0,0],[0,1,0],[0.25,1,0],[0.5,1,0],[0.75,1,0],[1,1,0],[0,0.25,0],[0,0.5,0],[0,0.75,0],[1,0.25,0],[1,0.5,0],[1,0.75,0]];outlineConnect=0;fontColor=#232F3E;fillColor=#8C4FFF;strokeColor=#ffffff;dashed=0;verticalLabelPosition=bottom;verticalAlign=top;align=center;html=1;fontSize=12;fontStyle=0;aspect=fixed;shape=mxgraph.aws4.resourceIcon;resIcon=mxgraph.aws4.elasticsearch_service;labelPosition=center;" parent="Lc69PInTfA7sejHYpEJL-169" vertex="1">
          <mxGeometry x="289.26468040994735" y="59.89937062937062" width="62.179122182680906" height="62.179122182680906" as="geometry" />
        </mxCell>
        <mxCell id="Lc69PInTfA7sejHYpEJL-173" value="&lt;b&gt;AURORA&lt;/b&gt;" style="sketch=0;points=[[0,0,0],[0.25,0,0],[0.5,0,0],[0.75,0,0],[1,0,0],[0,1,0],[0.25,1,0],[0.5,1,0],[0.75,1,0],[1,1,0],[0,0.25,0],[0,0.5,0],[0,0.75,0],[1,0.25,0],[1,0.5,0],[1,0.75,0]];outlineConnect=0;fontColor=#232F3E;fillColor=#C925D1;strokeColor=#ffffff;dashed=0;verticalLabelPosition=bottom;verticalAlign=top;align=center;html=1;fontSize=12;fontStyle=0;aspect=fixed;shape=mxgraph.aws4.resourceIcon;resIcon=mxgraph.aws4.aurora;labelPosition=center;" parent="Lc69PInTfA7sejHYpEJL-169" vertex="1">
          <mxGeometry x="370.71967144368574" y="59.39118881118882" width="63.080268880980626" height="63.080268880980626" as="geometry" />
        </mxCell>
        <mxCell id="Lc69PInTfA7sejHYpEJL-174" value="PostgreSQL" style="image;aspect=fixed;html=1;points=[];align=center;fontSize=12;image=img/lib/azure2/databases/Azure_Database_PostgreSQL_Server.svg;fontStyle=1" parent="Lc69PInTfA7sejHYpEJL-169" vertex="1">
          <mxGeometry x="380.6545945945947" y="189.6153846153846" width="43.25504151838672" height="57.67338869118229" as="geometry" />
        </mxCell>
        <mxCell id="Lc69PInTfA7sejHYpEJL-175" style="edgeStyle=orthogonalEdgeStyle;rounded=0;orthogonalLoop=1;jettySize=auto;html=1;entryX=0.51;entryY=0.047;entryDx=0;entryDy=0;entryPerimeter=0;" parent="Lc69PInTfA7sejHYpEJL-169" source="Lc69PInTfA7sejHYpEJL-173" target="Lc69PInTfA7sejHYpEJL-174" edge="1">
          <mxGeometry relative="1" as="geometry" />
        </mxCell>
        <mxCell id="Lc69PInTfA7sejHYpEJL-176" value="REDIS" style="image;sketch=0;aspect=fixed;html=1;points=[];align=center;fontSize=12;image=img/lib/mscae/Cache_Redis_Product.svg;fontStyle=1" parent="Lc69PInTfA7sejHYpEJL-169" vertex="1">
          <mxGeometry x="126.16053776196125" y="179.1" width="52.563886911822856" height="44.15618821668644" as="geometry" />
        </mxCell>
        <mxCell id="Lc69PInTfA7sejHYpEJL-177" style="edgeStyle=orthogonalEdgeStyle;rounded=0;orthogonalLoop=1;jettySize=auto;html=1;" parent="Lc69PInTfA7sejHYpEJL-169" source="Lc69PInTfA7sejHYpEJL-178" target="Lc69PInTfA7sejHYpEJL-176" edge="1">
          <mxGeometry relative="1" as="geometry" />
        </mxCell>
        <mxCell id="Lc69PInTfA7sejHYpEJL-178" value="Elastic Cache" style="outlineConnect=0;dashed=0;verticalLabelPosition=bottom;verticalAlign=top;align=center;html=1;shape=mxgraph.aws3.elasticache;fillColor=#2E73B8;gradientColor=none;fontStyle=1;horizontal=1;spacingBottom=0;labelPosition=center;" parent="Lc69PInTfA7sejHYpEJL-169" vertex="1">
          <mxGeometry x="126.16053776196125" y="59" width="54.0688018979834" height="70.1" as="geometry" />
        </mxCell>
        <mxCell id="Lc69PInTfA7sejHYpEJL-180" style="edgeStyle=orthogonalEdgeStyle;rounded=0;orthogonalLoop=1;jettySize=auto;html=1;" parent="VYfsRc5k7RGAkcmB3ad_-1" source="Lc69PInTfA7sejHYpEJL-162" target="Lc69PInTfA7sejHYpEJL-178" edge="1">
          <mxGeometry relative="1" as="geometry" />
        </mxCell>
        <mxCell id="Lc69PInTfA7sejHYpEJL-181" style="edgeStyle=orthogonalEdgeStyle;rounded=0;orthogonalLoop=1;jettySize=auto;html=1;" parent="VYfsRc5k7RGAkcmB3ad_-1" source="Lc69PInTfA7sejHYpEJL-164" target="Lc69PInTfA7sejHYpEJL-171" edge="1">
          <mxGeometry relative="1" as="geometry" />
        </mxCell>
        <mxCell id="Lc69PInTfA7sejHYpEJL-183" style="edgeStyle=orthogonalEdgeStyle;rounded=0;orthogonalLoop=1;jettySize=auto;html=1;entryX=0.5;entryY=0;entryDx=0;entryDy=0;entryPerimeter=0;" parent="VYfsRc5k7RGAkcmB3ad_-1" source="Lc69PInTfA7sejHYpEJL-166" target="Lc69PInTfA7sejHYpEJL-178" edge="1">
          <mxGeometry relative="1" as="geometry">
            <Array as="points">
              <mxPoint x="344" y="172" />
              <mxPoint x="153" y="172" />
            </Array>
          </mxGeometry>
        </mxCell>
        <mxCell id="Lc69PInTfA7sejHYpEJL-184" style="edgeStyle=orthogonalEdgeStyle;rounded=0;orthogonalLoop=1;jettySize=auto;html=1;" parent="VYfsRc5k7RGAkcmB3ad_-1" source="Lc69PInTfA7sejHYpEJL-166" target="Lc69PInTfA7sejHYpEJL-171" edge="1">
          <mxGeometry relative="1" as="geometry">
            <Array as="points">
              <mxPoint x="344" y="172" />
              <mxPoint x="235" y="172" />
            </Array>
          </mxGeometry>
        </mxCell>
        <mxCell id="Lc69PInTfA7sejHYpEJL-185" style="edgeStyle=orthogonalEdgeStyle;rounded=0;orthogonalLoop=1;jettySize=auto;html=1;" parent="VYfsRc5k7RGAkcmB3ad_-1" source="Lc69PInTfA7sejHYpEJL-167" target="Lc69PInTfA7sejHYpEJL-171" edge="1">
          <mxGeometry relative="1" as="geometry">
            <Array as="points">
              <mxPoint x="430" y="172" />
              <mxPoint x="235" y="172" />
            </Array>
          </mxGeometry>
        </mxCell>
        <mxCell id="Lc69PInTfA7sejHYpEJL-186" style="edgeStyle=orthogonalEdgeStyle;rounded=0;orthogonalLoop=1;jettySize=auto;html=1;entryX=0.5;entryY=0;entryDx=0;entryDy=0;entryPerimeter=0;" parent="VYfsRc5k7RGAkcmB3ad_-1" source="Lc69PInTfA7sejHYpEJL-167" target="Lc69PInTfA7sejHYpEJL-172" edge="1">
          <mxGeometry relative="1" as="geometry">
            <Array as="points">
              <mxPoint x="430" y="172" />
              <mxPoint x="320" y="172" />
            </Array>
          </mxGeometry>
        </mxCell>
        <mxCell id="Lc69PInTfA7sejHYpEJL-189" style="edgeStyle=orthogonalEdgeStyle;rounded=0;orthogonalLoop=1;jettySize=auto;html=1;entryX=0.5;entryY=0;entryDx=0;entryDy=0;entryPerimeter=0;" parent="VYfsRc5k7RGAkcmB3ad_-1" source="Lc69PInTfA7sejHYpEJL-167" target="Lc69PInTfA7sejHYpEJL-173" edge="1">
          <mxGeometry relative="1" as="geometry">
            <Array as="points">
              <mxPoint x="430" y="172" />
              <mxPoint x="402" y="172" />
            </Array>
          </mxGeometry>
        </mxCell>
        <mxCell id="Lc69PInTfA7sejHYpEJL-190" style="edgeStyle=orthogonalEdgeStyle;rounded=0;orthogonalLoop=1;jettySize=auto;html=1;entryX=0.5;entryY=0;entryDx=0;entryDy=0;entryPerimeter=0;" parent="VYfsRc5k7RGAkcmB3ad_-1" source="Lc69PInTfA7sejHYpEJL-167" target="Lc69PInTfA7sejHYpEJL-172" edge="1">
          <mxGeometry relative="1" as="geometry">
            <Array as="points">
              <mxPoint x="430" y="172" />
              <mxPoint x="320" y="172" />
            </Array>
          </mxGeometry>
        </mxCell>
      </root>
    </mxGraphModel>
  </diagram>
</mxfile>
